<svg xmlns="http://www.w3.org/2000/svg" viewBox="0 0 906.5 906.6" width="906.5" height="906.6"><path stroke-miterlimit="100" d="M897.5 453.3c0 245.4-198.9 444.3-444.2 444.3C207.9 897.5 9 698.6 9 453.3 9 207.9 207.9 9 453.3 9c245.3 0 444.2 198.9 444.2 444.3" fill="#fff" stroke-width="18" stroke="#000"/><path d="M215.8 275.6c-8.2 14.2-16.5 23.7-14.2 46.7 3.7 36.7 15.2 81 24.4 109.6 9.2-13.8 17-28.9 30.4-38.6-13-39.6-34.8-70.8-37.6-117.8h-3z" fill="#221f1f"/><path d="M360.9 248.2c7.9-29 22.9-50.9 31.5-79.2-27.2-2.4-44.6 4.9-47.8 26.4-17.6 11.6-40.7 12.5-61 19.1-5.7 1.9-11.1 4.2-16.2 7.3-18.5 11.5-29.3 28.4-43.6 42.6-.3 12.4 1.1 24.7 3.6 36.7 7 32.7 22.6 63.7 36 90.2 8.3-3.8 25.8-2 35.5-7.1 10.2-5.3 13.1-15.6 23.4-21.3 16.3-2.9 30.4 2.2 40.6 5.1-8.6-36.1-5.7-76.3-2.6-114 .3-1.9.5-3.9.6-5.8" fill="#221f1f"/><path d="M386.3 382.2c3-40.4-4-60 6.1-98.5.1-42.5 26.3-75.7 51.8-99.5-14.5-5.4-28.2-11.7-45.7-14.2-.3 1.5-1.6 1.7-2 3.1-6.3 23.7-27 48.5-30.5 77.2-5.2 43-6.6 82.9 3.1 123.9 5.5 2.8 9.9 6.9 17.2 8" fill="#221f1f"/><path d="M387.3 391.3c-6.9-5.3-16-10.8-24.3-9.1-1.4-1.7-2.7-3.4-2.1-7.1-5.8-6.4-18.5-5.8-27.4-9.1-16.2 2.4-22.1 15.1-32.5 23.3-9.2 1.5-19.1 6.4-26.4 4.1-6.9 1.9-10.4 7.2-18.3 8.1-16 9.4-20.9 29.8-34.5 41.6-3.8-2.2-2.6-9.6-3.1-15.2-5-22.1-14.6-45-14.2-69.1-6.5-19.6-11.2-50.1-5.1-73.1 1.9-2 3.7-.3 6.1 0 3-11.2 13.9-14.5 14.2-28.4 1.9-1.9 2.6-.1 5.1 0 20.5-25.9 45.2-48.5 83.3-55.8 11.3-2.1 24.5-1 32.5-9.1.3-4.4 3.2-7.4 1-9.2 7.4-9 14.9-17.4 27.4-19.3 31.9-4.9 56.8 11.7 82.3 15.3 0 0-64.2 29.7-64 212.1" fill="#221f1f"/><path d="M360.4 254c-3.1 37.7-6 77.9 2.6 114-10.2-2.8-24.3-7.9-40.6-5.1-10.3 5.7-13.2 16-23.4 21.3-9.7 5.1-27.2 3.3-35.5 7.1-13.4-26.5-29-57.5-36-90.2l7.5-1.2c5.3 13.3 24.2 13 33.5 22.3-1.5 2.6-3.6 4.5-4.1 8.1 10.9 1.4 20.7-7 32.5-8.1v20.3c7.3-.9 12.3-4 18.3-6.1-2.5-7.6-8.3-12-10.1-20.3 9.8-6.1 21.2-10.6 36.6-11.1 1.2-14.2-19.3-.4-22.4-10.2 11.4-13.3 28.1-21.3 32.5-41.6l8.6.8z" fill="#fff"/><path d="M398.5 170c17.5 2.5 31.2 8.8 45.7 14.2-25.4 23.8-51.6 57-51.8 99.5-10.1 38.5-3.1 58.1-6.1 98.5-7.3-1.2-11.7-5.2-17.3-8.1-9.7-41-8.2-80.9-3.1-123.9 3.5-28.7 24.2-53.4 30.5-77.2.5-1.3 1.9-1.5 2.1-3" fill="#eb2227"/><path d="M344.7 195.4c3.2-21.6 20.6-28.9 47.8-26.4-8.6 28.3-23.6 50.2-31.5 79.2-.2 1.9-.3 3.9-.5 5.8l-8.6-.7c-5.2-3.9-12.2 2.8-15.3 1 .9-2.2 2.6-3.5 2.1-7.1-10.3.6-11.3 10.4-15.3 17.3.2-8.4 7.2-15 3-24.4-17 2.9-16.2 23.7-28.4 31.5-5.3-15.7-6.2-35.8-12.2-50.8h-2.1v-6.3c20.2-6.6 43.4-7.5 61-19.1" fill="#fff"/><path d="M336.6 254.3c3.1 1.7 10-4.9 15.3-1-4.4 20.3-21.1 28.3-32.5 41.6 3.1 9.8 23.6-4 22.4 10.2-15.4.5-26.8 5-36.6 11.1 1.9 8.3 7.6 12.7 10.1 20.3-6 2.1-11 5.2-18.3 6.1v-20.3c-11.8 1.2-21.6 9.5-32.5 8.1.5-3.6 2.6-5.6 4.1-8.1-9.3-9.3-28.3-9-33.5-22.3 1.3-1.4 4.4-1 7.1-1 2.2-1-2.5-3.5-1-7.1 2.5-2 8.2-.7 12.2-1-3-8.9-11.3-12.5-15.3-20.3 16.3-1.1 25.4 13.8 37.6 20.3-2.4-12.5-12-26.5-13.2-43.7 4.3-2.6 5.2 1.6 8.1 3 2.9-5.4-3.2-17.6 2-22.3 4 .2 4 4.1 7.1 5.1.3-4.7 1.1-9.1 3.1-12.2h3c6 15 6.9 35.1 12.2 50.8 12.2-7.8 11.4-28.5 28.4-31.5 4.2 9.4-2.8 16-3 24.4 4-6.9 5-16.7 15.3-17.3.5 3.6-1.3 4.9-2.1 7.1m-6.1 26.4c3.8-7.3 15.7-16.5 13.2-23.4-12 2.6-13 16.2-22.4 21.3-1.2-1.2-2.9-1.8-2-5.1-2.2.5-6.6 2.5-7.1-1 4.2-6.8 12.3-19.9 10.2-26.4-12.2 10.5-15.2 30.2-28.5 39.6 0-18.8-4.1-36.7-9.1-54.8-2 10.1 3.8 22.2-1 28.5-4.7-5.1-3.6-16-8.1-21.3-.7 11.2 6.7 19.7 3 30.4-3.8-1.9-3.6-7.9-8.1-9.1 4.3 15.3 11 28.2 17.3 41.6-1.2 1.2-3.6 1.2-6.1 1-10.5-9.8-24.4-21.7-36.5-26.4 8 6.8 17.4 12.3 21.3 23.3-1.4.3-1.7 1.6-3 2-3.5-4-12.2-8.1-17.3-7.1 4.5 5 15.8 3.1 15.3 13.2-6.8-1.4-11.5-4.7-20.3-4.1 11.3 7.3 23.8 13.4 37.6 18.3 14.7-7 30.7-12.7 45.7-19.3-3.9-2.9-11.8-1.7-15.2-5.1 1.6-1.5 4-2.1 6.1-3 3.8-5.3 9.4-9.2 15-13.1m-21.3 52.8c-1.9-3.8-3.2-8.4-8.1-9.2v11.2c3.9.6 5.9-.9 8.1-2" fill="#221f1f"/><path d="M343.7 257.3c2.5 6.9-9.4 16.1-13.2 23.4-5.6 3.9-11.2 7.8-15.3 13.2-2.1.9-4.5 1.6-6.1 3 3.4 3.3 11.3 2.2 15.2 5.1-15 6.6-31 12.3-45.7 19.3-13.7-4.9-26.3-11-37.6-18.3 8.8-.6 13.5 2.7 20.3 4.1.6-10.1-10.8-8.2-15.3-13.2 5.1-1 13.8 3.1 17.3 7.1 1.3-.4 1.6-1.8 3-2-3.9-11.1-13.3-16.5-21.3-23.3 12.2 4.7 26 16.6 36.5 26.4 2.5.1 4.9.1 6.1-1-6.3-13.4-13-26.3-17.3-41.6 4.5 1.2 4.3 7.2 8.1 9.1 3.7-10.8-3.7-19.2-3-30.4 4.5 5.3 3.4 16.3 8.1 21.3 4.8-6.3-.9-18.4 1-28.5 5 18.1 9.1 36 9.1 54.8 13.2-9.4 16.3-29.1 28.5-39.6 2.1 6.5-6 19.5-10.2 26.4.5 3.5 4.9 1.5 7.1 1-.9 3.3.9 3.9 2 5.1 9.7-5.2 10.7-18.8 22.7-21.4m-42.6 67c5 .8 6.2 5.3 8.1 9.2-2.2 1.2-4.2 2.6-8.1 2v-11.2z" fill="#eb2227"/><path d="M283.7 214.5v6.3h-.9c-2 3.1-2.7 7.5-3.1 12.2-3.1-1-3.2-5-7.1-5.1-5.2 4.8.9 16.9-2 22.3-3-1.4-3.8-5.6-8.1-3 1.1 17.2 10.8 31.2 13.2 43.7-12.1-6.5-21.2-21.4-37.6-20.3 4 7.8 12.3 11.4 15.3 20.3-4 .4-9.7-.9-12.2 1-1.5 3.6 3.3 6.1 1 7.1-2.7 0-5.8-.4-7.1 1l-7.5 1.2c-2.6-12-4-24.3-3.6-36.7 14.3-14.2 25.1-31.2 43.6-42.6 5-3.2 10.4-5.5 16.1-7.4" fill="#fff"/><path d="M256.4 393.4C243 403 235.2 418.1 226 432c-9.2-28.6-20.7-72.9-24.4-109.6-2.3-23 6.1-32.5 14.2-46.7h3c2.8 46.9 24.6 78.1 37.6 117.7" fill="#eb2227"/><path d="M746.4 413.4c-25.8-11.1-31.2-42.5-70.8-39.7-18.5-4.1-31.7-19.2-44.6-28.1-2.8-1.9-6.4-3-9.8-4.6l1-2.2c8.4-1.6 10.4-9.6 17.4-12.6 10.4-.7 18.3 5.2 26.2 9.7.4-1.2 1.3-2 2.9-1.9-1.5-9.2-5.5-15.9-7.8-24.2 5.3-4.4 13-6.4 15.5-13.6-4.2-3.1-13-.4-20.4-3.9-3.3-6.7-7.3-12.7-9.7-20.4l2.6-6.7c6.3 4.1 12.6 8.2 20.7 10.6 12.5 12.6 27.9 22.5 38.8 36.8 10.5 22.8 29.6 37 50.4 49.5-8.5 12.6-8.9 33.5-12.4 51.3m20.3-68.8c-31.9-13.7-40.7-50.4-74.6-62.1-10.1-9.1-21.5-17-34.9-22.9l4-8.3c3.5 1.7 7 3.3 10.5 5 19.4 2.6 42.1 1.8 55.2 10.7 16.3 17 34.3 32.3 45.6 54.3-.8 8.9-2.6 16.7-5.8 23.3" fill="#fff"/><path d="M655.3 296.2c4.8.1 10.2-.5 13.6 1-2.6 4.2-6.5 7.1-11.6 8.7-.5-3.5-2.7-5.2-2-9.7m5.9-44.8l-4 8.3c-10.4-4.6-21.9-8.1-34.9-10-42.5-15.6-59.5-66.8-123.1-52.3-6.3 2.4-11.8 5.7-19.4 6.8-8.8-6-7.2-8.1-13.6-18.4 24.9-2.8 47.8-13 71.7-11.6 29.6 1.7 51 32.5 68.8 47.5 17 11 35.5 20.6 54.5 29.7m-5 62.2c5.8 1.7 4.6 10.3 7.8 14.5-7-.5-10.4-4.5-18.4-3.9.7-6.4 7.7-6.4 10.6-10.6" fill="#fff"/><path d="M763.8 355.3c-30-1.7-41.5-30.2-56.2-50.4-20.3-19.2-42.4-36.4-69.8-48.5l.2-1c27 4.3 39.3 23.3 61.9 32 20.1 13.9 31.5 36.3 51.4 50.4 3.8 6.4 17.8 7.8 12.5 17.5" fill="#3953a3"/><path d="M634 287.4c2.3-11.5 15.8-13.4 14.5 2-5.8.2-9.5-1.5-14.5-2M616.5 301c5.1-13.2 20-10 32-4.8 1.2 4.3 2.8 8.2 3.9 12.6-5.4 12.4-21.5 11.4-33 4.8-1-4.2-1.7-8.6-2.9-12.6m132.8 151.2c-22.6-9.3-31.6-48-61.1-52.4-12.9-1.9-24 2.5-34.9-2.9-22.8-11.4-35.6-42.6-63-51.3-4.2.8-6.5-.9-9.7-1-19.4 7.7-28 26.3-48.5 33 .4-10.8 1.9-20.6 1.9-33.9 17-4.1 22.2-20.7 41.7-18.4 6.1.7 15.2 4.8 20.4 8.7 7.8 6 16.2 14.6 24.2 22.3 8.7 8.4 18.5 14.7 26.2 20.4 17.5 3.5 32.2 9.8 49.4 13.6 20 14.2 37.1 31.4 53.3 49.4.8 5.6.4 6.5.1 12.5M619.4 319.4c6.3-.1 10.2 2 13.6 4.8-1.4 4.7-5.8 6.5-10.7 7.8-1.5-3.7-3.1-7.2-2.9-12.6m-19.4-6.8c3.5-4.6 16.3-15 13.6 1-4.5-.4-10.7 1-13.6-1m24.2-27.1c-1.2 5-7.6 4.7-8.7 9.7-5.4-2.9-2.8-7.8-3.9-14.5 6-.2 8.8 2.8 12.6 4.8" fill="#fff"/><path d="M664 328.1c-3.2-4.2-2-12.8-7.8-14.5-2.9 4.2-10 4.3-10.7 10.7 8.1-.7 11.5 3.3 18.5 3.8m4.8-31c-3.4-1.5-8.8-.9-13.6-1-.6 4.5 1.5 6.2 2 9.7 5.2-1.6 9.1-4.4 11.6-8.7m-55.2 16.5c2.7-16-10.1-5.6-13.6-1 2.9 2 9.1.6 13.6 1m1.9-18.4c1.1-5 7.5-4.7 8.7-9.7-3.8-2-6.7-5-12.6-4.8 1.1 6.7-1.5 11.6 3.9 14.5m6.8 36.8c4.9-1.3 9.3-3 10.7-7.8-3.4-2.8-7.3-5-13.6-4.8-.2 5.4 1.4 8.9 2.9 12.6m26.2-42.6c1.3-15.4-12.2-13.5-14.5-2 5 .5 8.7 2.2 14.5 2m0 6.8c-12-5.2-26.9-8.3-32 4.8 1.1 4 1.9 8.4 2.9 12.6 11.5 6.6 27.6 7.5 33-4.8-1.1-4.5-2.7-8.4-3.9-12.6m-34.9 22.2c-6.5-.9-13.3-1.5-18.4-3.9 1.8-9.2 12-10 15.5-17.4-1.3-9.8-2-10.5-2.9-20.4 11.1-1.4 13.6 6.5 21.3 5.8 6.4-3 8.4-10.4 17.4-10.7 2.4 7.7 6.4 13.7 9.7 20.4 7.3 3.5 16.2.8 20.4 3.9-2.5 7.2-10.3 9.1-15.5 13.6 2.3 8.4 6.3 15 7.8 24.2-1.7 0-2.5.7-2.9 1.9-7.9-4.4-15.8-10.4-26.2-9.7-7 3-9 11-17.4 12.6-5.1-4.6-5-14.4-8.8-20.3" fill="#3953a3"/><path d="M595.2 314.6c5.1 2.3 11.9 3 18.4 3.9 3.8 5.9 3.7 15.7 8.7 20.4l-1 2.2c-1.3-.6-2.6-1.3-3.8-2.2-4.2-3.2-7.6-10.5-11.6-12.6-12.8-6.7-23.5-13.7-41.7-13.6-10.9 4.9-22.6 9.1-33 14.6-7.6-27.2-24.2-54.7-35.9-83.4V242c.6-4.1-.7-6.4-1-9.7 29.2-32.2 83.9-6.3 101.8 16.5 16.9 2.8 28.9 10.5 46.5 12.6 2.2 1.3 4.3 2.6 6.5 4l-2.6 6.7c-9.1.3-11.1 7.7-17.4 10.7-7.7.7-10.3-7.2-21.3-5.8.9 9.8 1.6 10.6 2.9 20.4-3.5 7.2-13.7 8-15.5 17.2" fill="#fff"/><path d="M588.4 234.1c6.4 2.3 11.1 6.3 15.5 10.7 8.4 2.6 16.5 5.4 23.2 9.7 3.9 0 7.5.4 10.8.9l-.2 1h-12.6c-6.5-4.2-13.7-7.6-23.3-8.7-19.3-14.5-53-46.8-92.1-32-7 2.7-11.8 7.8-16.5 14.6-4.4-6.3-6.2-15.1-9.7-22.3 36.8-21 86.3-1.5 104.9 26.1m148.3 189c-10.5-14.1-25.4-23.7-38.8-34.9-18.9-4.1-35.5-10.4-53.3-15.5-27-16.9-37.4-50.5-80.5-51.4-11.5 4.6-17.1 15.2-31 17.4-4.2-13.9 15.2-9.9 19.4-18.4 5.4-.1 8.8-2.2 12.6-3.9 6.5-.7 10 1.6 16.5 1 34.5 18.1 56.1 49.2 96.9 61.1 36.5 1 47 27.9 68.8 43.6.6 3.2-1.2 9 1 10.6-2.6 3.1-8.1-7.1-11.6-9.6" fill="#3953a3"/><path d="M531.2 382.4c2.8 1.4 2.8-4.3 0-2.9v2.9zm160.9-99.8c33.9 11.7 42.8 48.4 74.6 62.1 3.1-6.6 4.9-14.5 5.8-23.3-11.3-22-29.3-37.3-45.6-54.3-13.1-8.8-35.8-8.1-55.2-10.7-3.5-1.7-7-3.3-10.5-5-19-9.1-37.5-18.7-54.4-29.9-17.8-15-39.2-45.8-68.8-47.5-23.9-1.4-46.9 8.8-71.7 11.6 6.4 10.3 4.8 12.5 13.6 18.4 7.6-1.1 13.1-4.3 19.4-6.8 63.6-14.5 80.6 36.7 123.1 52.3 13 2 24.5 5.4 34.9 10 13.3 6.1 24.7 13.9 34.8 23.1m-3.9 117.3c29.5 4.4 38.5 43 61.1 52.4.2-6 .7-6.9 0-12.6-16.2-18-33.3-35.2-53.3-49.4-17.2-3.7-31.9-10-49.4-13.6-7.6-5.6-17.5-12-26.2-20.4-8-7.6-16.4-16.3-24.2-22.3-5.1-3.9-14.3-8-20.4-8.7-19.4-2.4-24.6 14.3-41.7 18.4 0 13.3-1.5 23.1-1.9 33.9 20.4-6.7 29-25.3 48.5-33 3.2.1 5.4 1.8 9.7 1 27.4 8.7 40.2 40 63 51.3 10.8 5.5 21.9 1 34.8 3m19.4-95c14.7 20.2 26.2 48.7 56.2 50.4 5.2-9.7-8.8-11.1-12.6-17.4-19.9-14.1-31.3-36.6-51.4-50.4-22.6-8.7-34.8-27.8-61.9-32-3.3-.6-7-.9-10.8-.9-6.7-4.2-14.8-7.1-23.2-9.7-4.4-4.3-9.1-8.3-15.5-10.7-18.6-27.6-68.1-47.1-104.7-26.2 3.5 7.2 5.3 16.1 9.7 22.3 4.6-6.8 9.5-11.9 16.5-14.6 39.1-14.8 72.8 17.5 92.1 32 9.5 1.1 16.8 4.5 23.3 8.7h12.6c27.3 12.1 49.4 29.3 69.7 48.5m29.1 118.2c3.4 2.5 9 12.7 11.6 9.7-2.2-1.7-.4-7.4-1-10.6-21.8-15.7-32.3-42.6-68.8-43.6-40.9-11.8-62.4-42.9-96.9-61.1-6.4.6-9.9-1.7-16.5-1-3.8 1.7-7.2 3.7-12.6 3.9-4.2 8.5-23.6 4.5-19.4 18.4 13.9-2.2 19.5-12.8 31-17.4 43 .9 53.4 34.4 80.5 51.4 17.8 5.1 34.4 11.5 53.3 15.5 13.4 11.1 28.3 20.8 38.8 34.8M462.4 183.7c28.8-4.3 53-14.5 87.2-11.7 23.6 11.6 42 28.4 59.1 46.5 22.6 13.6 45.4 27 72.7 35.9 56.9-5.4 67 35.8 94 60.1-.4 16.7-2.1 32.1-8.7 42.6.9 1.7 3.9 1.2 2.9 4.8-2.8 2.1-4.8-1-6.8 1.9-15.8 22.4-14.8 79.5-2.9 102.8-3.9 2.7-6-6.1-10.6-2.9-.8-1.1-1.3-2.6-1-4.8-17.2-15.1-30.4-34.2-47.5-49.4-4.3-.6-6.2-3.5-9.7-4.9-8.4-.2-14.8-1.2-24.2 1-23.5-2.4-37.5-27.3-54.3-41.7-7.9-6.8-21.5-16.5-33-15.5-17.7 1.6-20.9 26-40.7 28.1-2.3 3.3-4.8 6.6-4.8 9.7m-39.8-78.4v-9.7c2.5 6.2 9 17.8 5.8 23.3 1.1 3.1 2.5 0 3.9 2.9 3.1 18.2 12.1 38.1 16.5 58.1 3.4-.2 3.7-3.4 6.8-3.9 5.8-25.1.8-53.1-6.8-70.8h2.9c-.3-1.3-2.4-.8-3.9-.9-5.9-23.2-21.7-36.5-24.3-63 11.7 28.7 28.3 56.2 35.9 83.4 10.4-5.5 22.1-9.6 33-14.6 18.1-.1 28.8 6.9 41.7 13.6 4 2.1 7.4 9.4 11.6 12.6 1.2.9 2.5 1.6 3.8 2.2 3.3 1.6 7 2.6 9.8 4.6 12.9 8.9 26.1 24 44.6 28.1 39.6-2.8 45 28.7 70.8 39.7 3.5-17.8 3.9-38.7 12.6-51.4-20.8-12.4-39.9-26.7-50.4-49.5-10.9-14.3-26.3-24.2-38.8-36.8-8.1-2.3-14.4-6.5-20.7-10.6-2.1-1.4-4.2-2.7-6.5-4-17.6-2.1-29.6-9.8-46.5-12.6-17.9-22.8-72.6-48.7-101.8-16.5.3 3.3 1.6 5.6 1 9.7-7.3-8.1-10.1-20.9-15.5-31H474c1.5-10.4-8-16.8-12.6-24.2 11.1 28.5 22.2 64.3 32 93v10.7c-11.4-37.7-23.6-74.6-38.8-108.5" fill="#221f1f"/><path d="M622.1 339.3l-.2-.2c-2.9-2.8-4.2-7.2-5.4-11.5-.9-3.1-1.8-6.3-3.3-8.8l-1.9-.3c-5.8-.7-11.8-1.5-16.4-3.6l-.3-.2.1-.4c1-5.3 4.8-7.9 8.4-10.5 2.9-2 5.5-3.9 7.1-7-.5-3.9-.9-6.3-1.3-8.5-.6-3.3-1-5.9-1.6-11.8v-.5l.5-.1c.9-.1 1.8-.2 2.6-.2 4.7 0 7.8 1.8 10.5 3.4 2.3 1.3 4.5 2.6 7.3 2.6h.8c2.3-1.1 4-2.8 5.8-4.6 2.9-2.9 5.9-5.9 11.7-6.1h.4l.1.4c1.6 5.3 4.1 9.9 6.6 14.4l3 5.7c3.6 1.7 7.7 1.9 11.3 2 3.7.1 6.8.3 9 1.9l.3.2-.1.3c-1.7 5-6 7.6-10.1 10.1-1.8 1.1-3.7 2.2-5.3 3.5.9 3.3 2.1 6.3 3.2 9.3 1.7 4.5 3.5 9.2 4.5 14.7l.1.6h-.6c-1.4 0-2.1.5-2.5 1.6l-.2.6-.5-.3c-1.2-.7-2.5-1.4-3.7-2.1-6.7-3.9-13.6-8-22.1-7.5-3 1.3-5 3.4-7.1 5.7-2.7 2.9-5.5 5.9-10.3 6.9l-.4.3zm-26.4-25c4.4 1.9 10.2 2.7 15.8 3.4l2.4.3.1.2c1.7 2.6 2.6 6 3.5 9.2 1.1 4.1 2.3 8.3 4.9 10.9 4.4-.9 6.9-3.6 9.6-6.5 2.1-2.3 4.3-4.7 7.5-6h.2c8.9-.6 16 3.6 22.8 7.6 1.1.6 2.1 1.3 3.2 1.9.5-1 1.4-1.6 2.6-1.7-.9-5.2-2.6-9.6-4.3-14-1.2-3.1-2.4-6.3-3.3-9.7l-.1-.3.2-.2c1.7-1.5 3.7-2.7 5.7-3.8 4-2.4 7.9-4.7 9.6-9.2-1.9-1.2-4.8-1.3-8.1-1.5-3.8-.1-8-.3-11.9-2.2l-.1-.1-.1-.1c-1-2-2-4-3.1-5.8-2.4-4.4-4.9-8.9-6.5-14.2-5.2.3-7.9 3-10.7 5.8-1.8 1.8-3.7 3.6-6.2 4.8h-1.2c-3.1 0-5.4-1.3-7.8-2.7-2.8-1.6-5.6-3.3-10-3.3-.7 0-1.4 0-2.1.1.5 5.5 1 8 1.5 11.2.4 2.2.8 4.7 1.3 8.6v.1l-.1.1c-1.6 3.4-4.6 5.5-7.4 7.5-3.5 2.6-6.8 4.9-7.9 9.6z" fill="#221f1f"/><path d="M746.6 413.9l-.4-.2c-9.7-4.2-16.6-11.3-23.3-18.1-10.4-10.7-21.2-21.7-42.6-21.7-1.5 0-3.1.1-4.8.2-13.4-3-24.2-11.8-33.8-19.7-3.8-3.1-7.4-6-10.9-8.5-1.8-1.3-4-2.1-6.2-3-1.2-.5-2.3-1-3.5-1.5l-.3-.1 1.2-2.7h.2c4.6-.9 7.2-3.7 9.9-6.6 2.1-2.3 4.3-4.6 7.5-6h.1c8.9-.6 15.9 3.6 22.7 7.6 1.1.7 2.2 1.3 3.3 2 .5-1.1 1.4-1.7 2.7-1.8-.9-5.3-2.7-9.8-4.3-14.2-1.2-3.1-2.4-6.2-3.3-9.7l-.1-.2.2-.1c1.7-1.5 3.7-2.6 5.7-3.8 4.1-2.5 8-4.8 9.7-9.4-2-1.3-4.9-1.4-8.3-1.6-3.7-.1-8-.3-11.8-2.2h-.1v-.1c-1-2-2-4-3.1-5.9-2.4-4.5-5-9.1-6.6-14.6v-.1l2.7-7.1 1.1.7c6 3.8 12.2 7.8 19.9 10h.1l.1.1c4.8 4.9 10.2 9.4 15.4 13.8 8.2 7 16.7 14.2 23.4 23 10.8 23.4 30.5 37.6 50.3 49.4l.3.2-.2.3c-6.3 9.1-8.3 22.9-10.1 36.2-.7 5-1.4 10.2-2.4 15.1l-.4.3zm-66.2-40.7c21.7 0 32.5 11.1 43 21.9 6.6 6.7 13.4 13.7 22.7 17.8.9-4.7 1.6-9.8 2.3-14.7 1.9-13.2 3.8-26.9 10.1-36.2-19.8-11.8-39.5-26-50.2-49.4-6.6-8.7-15.1-15.9-23.3-22.8-5.2-4.4-10.5-8.9-15.4-13.8-7.7-2.2-13.9-6.2-19.9-10.1l-.4-.3-2.4 6.2c1.6 5.3 4.1 9.9 6.5 14.3 1 1.9 2.1 3.8 3 5.8 3.7 1.7 7.8 1.9 11.4 2.1 3.6.1 6.8.3 8.9 1.8l.2.1-.1.2c-1.7 5-6 7.5-10 10-1.9 1.1-3.8 2.3-5.4 3.6.9 3.3 2.1 6.4 3.3 9.4 1.7 4.5 3.5 9.2 4.4 14.7l.1.4h-.5c-1.3 0-2.1.5-2.5 1.7l-.1.4-.3-.2c-1.2-.7-2.5-1.4-3.7-2.1-6.7-4-13.6-8-22.3-7.5-3 1.3-5.1 3.6-7.2 5.8-2.7 2.9-5.4 5.8-10.1 6.8l-.8 1.8c1 .5 2.1.9 3.2 1.3 2.3.9 4.5 1.8 6.4 3.1 3.6 2.5 7.2 5.4 11 8.5 9.5 7.8 20.2 16.5 33.4 19.5 1.6 0 3.1-.1 4.7-.1zm86.5-28.2l-.3-.1c-15.4-6.6-25.5-18.6-35.4-30.3-10.6-12.6-21.7-25.7-39.2-31.7l-.1-.1c-10.9-9.8-22.3-17.3-34.8-22.9l-.3-.1 4.3-8.8.3.1c3 1.5 6.2 3 10.5 5 4.9.7 10.2 1.1 15.3 1.5 14.9 1.3 30.2 2.6 40.1 9.2 3.4 3.5 6.9 7 10.2 10.4 13 13 26.5 26.5 35.4 44v.2c-.9 9.4-2.8 17.1-5.8 23.4l-.2.2zm-74.6-62.7c17.7 6.1 28.7 19.2 39.4 31.9 9.7 11.5 19.8 23.5 34.9 30 2.9-6.2 4.7-13.6 5.6-22.8-8.9-17.4-22.3-30.8-35.3-43.8-3.4-3.4-6.8-6.9-10.2-10.4-9.6-6.5-24.9-7.8-39.7-9-5.1-.4-10.4-.9-15.3-1.5h-.1c-4.1-1.9-7.3-3.4-10.3-4.9l-3.7 7.7c12.5 5.5 23.8 13 34.7 22.8z" fill="#221f1f"/><path d="M657 306.3v-.4c-.2-1.3-.6-2.3-1-3.4-.7-1.7-1.4-3.5-1-6.4v-.3h6.5c2.7 0 5.4.1 7.5 1l.3.1-.2.3c-2.6 4.2-6.5 7.2-11.8 8.8l-.3.3zm-1.5-9.8c-.3 2.6.3 4.1 1 5.8.4 1 .8 2 1 3.1 4.8-1.6 8.5-4.3 10.9-8.1-1.9-.7-4.4-.8-6.9-.8h-6zm1.9-36.4l-.3-.1c-10.8-4.8-22.5-8.1-34.9-10-15.1-5.5-27.1-15.6-38.8-25.4-17.3-14.5-35.1-29.5-63-29.5-6.6 0-13.8.9-21.2 2.5-1.7.6-3.3 1.4-4.9 2.1-4.4 1.9-8.9 3.9-14.5 4.7h-.1l-.1-.1c-6.1-4.1-7.3-6.5-9.5-10.9-1-2-2.2-4.4-4.2-7.7l-.3-.4.5-.1c9.9-1.1 19.5-3.4 28.9-5.7 13.1-3.1 25.5-6.1 38.4-6.1 1.5 0 3 0 4.5.1 22.4 1.3 39.8 18.8 55.2 34.3 4.9 4.9 9.5 9.6 13.8 13.2 14.6 9.6 31.4 18.9 54.4 29.8l.3.1-4.2 9.2zm-136.9-65.7c28.2 0 46.1 15.1 63.4 29.6 11.6 9.7 23.6 19.8 38.5 25.3 12.2 1.8 23.9 5.2 34.7 9.9l3.7-7.7c-22.9-10.9-39.6-20.1-54.2-29.8-4.4-3.7-9-8.4-13.9-13.3-15.3-15.4-32.6-32.9-54.8-34.1-1.5-.1-3-.1-4.5-.1-12.8 0-25.1 2.9-38.2 6.1-9.2 2.2-18.8 4.5-28.5 5.6 1.9 3 3 5.4 4 7.3 2.2 4.4 3.3 6.6 9.1 10.6 5.5-.8 9.9-2.8 14.2-4.6 1.6-.7 3.3-1.4 5-2.1 7.6-1.8 14.8-2.7 21.5-2.7zm144.2 134.1h-.7c-3.1-.2-5.5-1.1-7.8-2-2.6-1-5.3-2-8.9-2-.5 0-1.1 0-1.7.1h-.4v-.4c.5-4 3.3-5.7 6.1-7.2 1.8-1 3.5-2 4.6-3.6l.1-.2.2.1c3.7 1.1 4.7 4.9 5.6 8.5.6 2.2 1.1 4.5 2.3 6.1l.6.6zm-17.4-4.6c3.7 0 6.5 1 9.1 2 2.1.8 4.3 1.6 6.9 1.9-1-1.6-1.5-3.7-2.1-5.8-.9-3.6-1.8-6.9-4.9-8-1.2 1.6-3 2.6-4.7 3.6-2.7 1.5-5.2 2.9-5.7 6.4.5-.1.9-.1 1.4-.1z" fill="#221f1f"/><path d="M764 355.6h-.2c-24.3-1.4-36.4-20-48.1-38.1-2.8-4.4-5.5-8.5-8.4-12.4-24.2-22.9-45.7-37.8-69.7-48.4l-.2-.1.3-1.6h.3c16 2.5 26.9 10.3 37.6 17.8 7.4 5.3 15.1 10.7 24.4 14.3 10.3 7.1 18.4 16.5 26.2 25.6 7.6 8.8 15.5 18 25.3 24.9l.1.1c1.3 2.2 4 3.9 6.6 5.4 4.7 2.9 9.5 5.8 6 12.3l-.2.2zm-125.8-99.4c24 10.6 45.5 25.6 69.7 48.5 2.9 4 5.6 8.1 8.4 12.5 11.6 17.9 23.5 36.4 47.4 37.8 3-5.8-1.3-8.5-5.9-11.3-2.6-1.6-5.3-3.3-6.8-5.6-9.8-7-17.7-16.1-25.3-25-7.8-9.1-15.9-18.4-26-25.4-9.3-3.6-17-9-24.5-14.3-10.5-7.4-21.3-15.1-37-17.7v.5zm9.2 33.5c-3 0-5.6-.5-8-1.1-1.7-.4-3.5-.7-5.5-.9h-.4l.1-.3c1.2-6.1 5.4-9.4 8.9-9.4 1.6 0 3 .6 4 1.8 1.3 1.4 2.7 4.2 2.2 9.6v.3h-1.3zm-13.1-2.6c1.8.2 3.5.6 5.2.9 2.6.6 5.3 1.1 8.7 1 .4-5-.9-7.6-2.1-8.9-1-1-2.2-1.6-3.6-1.6-3.1.1-6.9 3.1-8.2 8.6zm1.9 31.6c-5.5 0-11.7-1.8-17-4.8l-.1-.1v-.1c-.4-1.6-.7-3.2-1.1-4.8-.5-2.6-1.1-5.3-1.8-7.8v-.2c2.4-6.3 7.3-9.5 14.5-9.5 4.9 0 11 1.5 17.9 4.5l.1.1v.1c.5 1.9 1.1 3.7 1.8 5.5.8 2.3 1.6 4.6 2.2 7.1v.2c-2.8 6.3-8.6 9.8-16.5 9.8zm-16.5-5.3c5.2 3 11.2 4.7 16.5 4.7 7.5 0 13.2-3.3 15.8-9.3-.6-2.4-1.4-4.7-2.1-6.9-.6-1.8-1.2-3.6-1.7-5.4-6.8-2.9-12.7-4.4-17.5-4.4-6.9 0-11.5 3-13.9 9 .7 2.5 1.3 5.1 1.8 7.7.4 1.5.7 3 1.1 4.6zm129.9 139.3l-.4-.2c-9.9-4.1-17.1-13.6-24.7-23.7-9.7-12.9-19.8-26.2-36.3-28.6-2.3-.3-4.8-.5-7.6-.5-2.3 0-4.6.1-6.8.2s-4.3.2-6.4.2c-4.1 0-9.1-.3-14.1-2.9-10.2-5.1-18.2-13.9-26.7-23.3-10.4-11.4-21.1-23.2-36.2-28-.8.1-1.5.2-2.2.2-1.6 0-2.9-.3-4.1-.6-1.1-.3-2.1-.5-3.2-.6-9.2 3.7-16.1 9.9-22.8 15.9-7.3 6.6-14.9 13.5-25.7 17l-.4.1v-.5c.2-4.3.5-8.3.8-12.6.5-6.5 1.1-13.3 1.1-21.3v-.3l.2-.1c7.1-1.7 12.1-5.6 17-9.4 6.1-4.7 11.9-9.2 21.1-9.2 1.2 0 2.4.1 3.7.2 5.9.7 15.1 4.6 20.5 8.8 6.1 4.7 12.7 11.1 19 17.2 1.8 1.7 3.5 3.4 5.2 5.1 6.7 6.4 14 11.7 20.5 16.3 2 1.4 3.8 2.7 5.6 4 9.1 1.8 17.5 4.5 25.7 7 7.6 2.3 15.4 4.8 23.7 6.6l.1.1c21.7 15.4 40 34.6 53.4 49.5l.1.1v.1c.5 4.2.4 5.9.2 8.8-.1 1-.1 2.3-.2 3.8l-.1.6zM680.5 399c2.8 0 5.4.2 7.7.5 16.8 2.5 26.9 15.9 36.7 28.9 7.5 9.9 14.5 19.2 24 23.3.1-1.4.1-2.4.2-3.4.2-2.9.3-4.5-.2-8.6-13.4-14.9-31.5-33.9-53.2-49.3-8.3-1.8-16.1-4.2-23.6-6.6-8.2-2.5-16.6-5.2-25.7-7l-.1-.1c-1.8-1.3-3.6-2.6-5.6-4-6.5-4.6-13.9-9.9-20.6-16.3-1.7-1.7-3.5-3.4-5.3-5.1-6.3-6.1-12.8-12.5-18.9-17.2-5.3-4.1-14.4-8-20.2-8.6-1.2-.2-2.5-.2-3.6-.2-9 0-14.7 4.4-20.7 9.1-4.9 3.8-9.9 7.7-17 9.5 0 8-.6 14.7-1.1 21.1-.3 4.1-.6 8-.8 12.1 10.4-3.5 17.8-10.2 25-16.7 6.7-6.1 13.7-12.4 23-16.1h.2c1.2 0 2.4.3 3.4.6 1.2.3 2.5.6 4 .6.7 0 1.4-.1 2.2-.2h.2c15.3 4.9 26.1 16.7 36.5 28.2 8.5 9.3 16.5 18.1 26.5 23.1 4.9 2.5 9.7 2.8 13.8 2.8 2.1 0 4.2-.1 6.4-.2s4.5-.2 6.8-.2zm-58.4-66.6l-.4-1.1c-1.3-3.4-2.7-6.9-2.6-11.8v-.3h.3c6.8-.1 10.8 2.4 13.8 4.9l.2.1-.1.2c-1.5 5.1-6.4 6.8-10.9 8h-.3zm-2.4-12.7c-.1 4.7 1.3 8 2.5 11.3l.2.6c4.2-1.1 8.6-2.8 10.1-7.3-2.8-2.3-6.5-4.6-12.7-4.6h-.1zm-14.3-5.7c-1.8 0-4-.1-5.5-1.1l-.3-.2.2-.3c2.1-2.8 7.6-7.7 11.2-7.7.9 0 1.7.3 2.3 1 1.1 1.3 1.4 4 .7 8v.3h-.3c-1.4-.1-3.3-.1-5.1 0h-3.2zm-4.9-1.5c1.3.7 3.3.8 4.9.8 1 0 2 0 3.1-.1 1.7-.1 3.6-.1 4.9 0 .6-3.6.4-6-.6-7.2-.4-.5-1-.8-1.8-.8-3.3.1-8.4 4.7-10.5 7.3zm15.2-16.9l-.4-.2c-3.9-2.1-3.8-5.1-3.8-9 0-1.7 0-3.7-.3-5.8l-.1-.4h.7c4.4 0 7.2 1.7 9.9 3.4.8.5 1.7 1 2.5 1.5l.2.1-.1.2c-.6 2.6-2.6 3.8-4.5 5-1.9 1.2-3.7 2.3-4.2 4.7l.1.5zM612 281c.3 2 .3 3.9.2 5.5 0 3.7-.1 6.3 3.1 8.2.7-2.4 2.6-3.5 4.4-4.7 1.8-1.1 3.5-2.2 4.1-4.4-.8-.4-1.6-.9-2.4-1.4-2.6-1.6-5.2-3.2-9.4-3.2z" fill="#221f1f"/><path d="M622.2 339.1l-.1-.1c-2.9-2.7-4.1-7.1-5.3-11.4-.9-3.1-1.8-6.4-3.3-8.9-.7-.1-1.3-.2-2-.3-5.8-.7-11.8-1.5-16.4-3.6l-.2-.1v-.2c1-5.3 4.8-7.9 8.4-10.4 2.9-2 5.6-3.9 7.1-7.1-.5-3.9-1-6.4-1.3-8.5-.6-3.3-1-5.9-1.6-11.7v-.3h.3c.9-.1 1.8-.2 2.6-.2 4.7 0 7.7 1.8 10.4 3.4 2.5 1.5 4.9 2.9 8.2 2.6 2.4-1.1 4.2-2.9 5.9-4.6 2.9-2.9 5.9-5.8 11.6-6h.2l.1.2c1.6 5.4 4.2 10 6.6 14.4 1 1.9 2.1 3.8 3 5.8 3.7 1.7 7.8 1.9 11.4 2.1 3.6.1 6.8.3 8.9 1.8l.2.1-.1.2c-1.7 5-6 7.5-10 10-1.9 1.1-3.8 2.3-5.4 3.6.9 3.3 2.1 6.4 3.3 9.4 1.7 4.5 3.5 9.2 4.4 14.7l.1.4h-.5c-1.3 0-2.1.5-2.5 1.7l-.1.4-.3-.2c-1.2-.7-2.4-1.4-3.7-2.1-6.7-4-13.6-8-22.3-7.5-3 1.3-5.1 3.6-7.2 5.8-2.7 2.9-5.5 5.9-10.3 6.8l-.1-.2zm-26.7-24.7c4.5 2 10.3 2.7 16 3.4l2.1.3h.1l.1.1c1.7 2.6 2.6 5.9 3.5 9.2 1.2 4.1 2.3 8.4 5 11 4.5-.9 7-3.7 9.7-6.6 2.1-2.3 4.3-4.6 7.5-6h.1c8.9-.6 15.9 3.6 22.7 7.6 1.1.7 2.2 1.3 3.3 2 .5-1.1 1.4-1.7 2.7-1.8-.9-5.3-2.7-9.8-4.3-14.2-1.2-3.1-2.4-6.2-3.3-9.7l-.1-.2.2-.1c1.7-1.5 3.7-2.6 5.7-3.8 4.1-2.5 8-4.8 9.7-9.4-2-1.3-4.9-1.4-8.3-1.6-3.7-.1-8-.3-11.8-2.2h-.1v-.1c-1-2-2-4-3.1-5.9-2.4-4.4-4.9-9-6.5-14.3-5.3.3-8 3-10.9 5.9-1.8 1.8-3.6 3.6-6.1 4.8h-.1c-3.5.3-6-1.1-8.7-2.7-2.8-1.6-5.6-3.3-10.1-3.3-.7 0-1.5 0-2.2.1.5 5.6 1 8.2 1.5 11.4.4 2.2.8 4.7 1.3 8.6v.2c-1.6 3.4-4.5 5.4-7.4 7.4-3.7 2.7-7.1 5-8.2 9.9zm26.6 18l-.4-1.1c-1.3-3.4-2.7-6.9-2.6-11.8v-.3h.3c6.9-.1 11 2.6 13.8 4.9l.2.1-.1.2c-1.5 5.1-6.4 6.8-10.9 8h-.3zm-2.4-12.7c-.1 4.7 1.3 8 2.5 11.3l.2.6c4.2-1.1 8.6-2.8 10.1-7.3-2.8-2.3-6.5-4.6-12.7-4.6h-.1zm45 8.8h-.7c-3.1-.2-5.5-1.1-7.8-2-2.6-1-5.3-2-8.9-2-.5 0-1.1 0-1.7.1h-.4v-.4c.5-4 3.3-5.7 6.1-7.2 1.8-1 3.5-2 4.6-3.6l.1-.2.2.1c3.7 1.1 4.7 4.9 5.6 8.5.6 2.2 1.1 4.5 2.3 6.1l.6.6zm-17.4-4.6c3.7 0 6.5 1 9.1 2 2.1.8 4.3 1.6 6.9 1.9-1-1.6-1.5-3.7-2.1-5.8-.9-3.6-1.8-6.9-4.9-8-1.2 1.6-3 2.6-4.7 3.6-2.7 1.5-5.2 2.9-5.7 6.4.5-.1.9-.1 1.4-.1zm-11.1-5.2c-5.5 0-11.7-1.8-17-4.8l-.1-.1v-.1c-.4-1.6-.7-3.2-1.1-4.8-.5-2.6-1.1-5.3-1.8-7.8v-.2c2.4-6.3 7.3-9.5 14.5-9.5 4.9 0 11 1.5 17.9 4.5l.1.1v.1c.5 1.9 1.1 3.7 1.8 5.5.8 2.3 1.6 4.6 2.2 7.1v.2c-2.8 6.3-8.6 9.8-16.5 9.8zm-16.5-5.3c5.2 3 11.2 4.7 16.5 4.7 7.5 0 13.2-3.3 15.8-9.3-.6-2.4-1.4-4.7-2.1-6.9-.6-1.8-1.2-3.6-1.7-5.4-6.8-2.9-12.7-4.4-17.5-4.4-6.9 0-11.5 3-13.9 9 .7 2.5 1.3 5.1 1.8 7.7.4 1.5.7 3 1.1 4.6zm-14.3.6c-1.8 0-4-.1-5.5-1.1l-.3-.2.2-.3c2.1-2.8 7.6-7.7 11.2-7.7.9 0 1.7.3 2.3 1 1.1 1.3 1.4 4 .7 8v.3h-.3c-1.4-.1-3.3-.1-5.1 0h-3.2zm-4.9-1.5c1.3.7 3.3.8 4.9.8 1 0 2 0 3.1-.1 1.7-.1 3.6-.1 4.9 0 .6-3.6.4-6-.6-7.2-.4-.5-1-.8-1.8-.8-3.3.1-8.4 4.7-10.5 7.3zm56.5-6.2v-.4c-.2-1.3-.6-2.3-1-3.4-.7-1.7-1.4-3.5-1-6.4v-.3h6.5c2.7 0 5.4.1 7.5 1l.3.1-.2.3c-2.6 4.2-6.5 7.2-11.8 8.8l-.3.3zm-1.5-9.8c-.3 2.6.3 4.1 1 5.8.4 1 .8 2 1 3.1 4.8-1.6 8.5-4.3 10.9-8.1-1.9-.7-4.5-.8-6.9-.8h-6zm-39.8-.9l-.4-.2c-3.9-2.1-3.8-5.1-3.8-9 0-1.7 0-3.7-.3-5.8l-.1-.4h.7c4.4 0 7.2 1.7 9.9 3.4.8.5 1.7 1 2.5 1.5l.2.1-.1.2c-.6 2.6-2.6 3.8-4.5 5-1.9 1.2-3.7 2.3-4.2 4.7l.1.5zM612 281c.3 2 .3 3.9.2 5.5 0 3.7-.1 6.3 3.1 8.2.7-2.4 2.6-3.5 4.4-4.7 1.8-1.1 3.5-2.2 4.1-4.4-.8-.4-1.6-.9-2.4-1.4-2.6-1.6-5.2-3.2-9.4-3.2zm35.4 8.7c-3 0-5.6-.5-8-1.1-1.7-.4-3.5-.7-5.5-.9h-.4l.1-.3c1.2-6.1 5.4-9.4 8.9-9.4 1.6 0 3 .6 4 1.8 1.3 1.4 2.7 4.2 2.2 9.6v.3h-1.3zm-13.1-2.6c1.8.2 3.5.6 5.2.9 2.4.5 4.9 1 7.9 1h.8c.4-5-.9-7.6-2.1-8.9-1-1-2.2-1.6-3.6-1.6-3.1.1-6.9 3.1-8.2 8.6z" fill="#221f1f"/><path d="M621.4 341.5l-.3-.1c-1.6-.8-2.8-1.5-3.9-2.3-2-1.5-3.8-3.9-5.5-6.2-2-2.7-3.9-5.2-6-6.3-1.5-.8-2.9-1.6-4.4-2.3-10.8-5.8-21-11.2-36.7-11.2h-.4c-4 1.8-8.1 3.5-12.1 5.2-7 2.9-14.2 5.9-20.8 9.4l-.4.2-.1-.4c-4.7-16.8-12.7-33.4-21.1-50.9-5.1-10.5-10.3-21.5-14.8-32.4v-2c.4-2.7 0-4.5-.4-6.4-.2-1-.4-2.1-.5-3.2v-.1l.1-.1c9.2-10.1 21.3-15.2 36.1-15.2 25.8 0 53.9 16 66.1 31.6 7.9 1.3 14.8 3.7 21.5 6.1 7.6 2.7 15.6 5.4 24.9 6.5h.1c2.3 1.3 4.5 2.7 6.5 4l.2.1-2.7 7.1h-.2c-5.5.2-8.2 2.9-11.2 5.9-1.8 1.8-3.6 3.6-6.1 4.8h-.1c-3.5.3-6-1.1-8.7-2.7-2.8-1.6-5.6-3.3-10.1-3.3-.7 0-1.5 0-2.2.1.5 5.6 1 8.2 1.5 11.4.4 2.2.8 4.7 1.3 8.6v.2c-1.6 3.4-4.5 5.4-7.4 7.4-3.6 2.5-7 4.9-8.1 9.7 4.5 2 10.3 2.7 16 3.4l2.1.3h.1l.1.1c1.7 2.6 2.6 5.9 3.5 9.2 1.2 4.2 2.4 8.5 5.1 11.1l.2.2-1.2 2.5zm-56.8-29.2c15.9 0 26.1 5.5 37 11.3 1.4.8 2.9 1.6 4.4 2.3 2.2 1.2 4.2 3.8 6.2 6.5 1.7 2.3 3.5 4.6 5.4 6.1 1 .7 2 1.4 3.5 2.1l.8-1.7c-2.8-2.7-4-7.1-5.2-11.3-.9-3.1-1.8-6.4-3.3-8.9-.7-.1-1.3-.2-2-.3-5.8-.7-11.8-1.5-16.4-3.6l-.2-.1v-.2c1-5.3 4.8-7.9 8.4-10.4 2.9-2 5.6-3.9 7.1-7.1-.5-3.9-1-6.4-1.3-8.5-.6-3.3-1-5.9-1.6-11.7v-.3h.3c.9-.1 1.8-.2 2.6-.2 4.7 0 7.7 1.8 10.4 3.4 2.5 1.5 4.9 2.9 8.2 2.6 2.4-1.1 4.2-2.9 5.9-4.6 2.9-2.8 5.8-5.8 11.4-6l2.4-6.2c-1.9-1.2-4-2.6-6.2-3.8-9.4-1.1-17.3-3.9-25-6.6-6.7-2.3-13.6-4.8-21.5-6.1h-.1l-.1-.1c-12.1-15.5-40-31.4-65.7-31.4-14.5 0-26.5 5-35.5 14.9.1 1.1.3 2.1.5 3 .4 1.9.8 3.9.4 6.6v1.8c4.5 10.9 9.7 21.8 14.7 32.3 8.4 17.5 16.3 33.9 21 50.7 6.5-3.4 13.6-6.4 20.5-9.2 4-1.7 8.2-3.4 12.2-5.2h.1l.7-.1z" fill="#221f1f"/><path d="M638.1 256.7h-13l-.1-.1c-7.7-5-14.9-7.7-23.1-8.7h-.1l-.1-.1c-2.1-1.6-4.5-3.5-7-5.4-16.2-12.8-38.4-30.3-64.4-30.3-6.9 0-13.8 1.3-20.4 3.8-7.6 2.9-12.5 8.9-16.3 14.5l-.3.4-.3-.4c-2.7-3.9-4.5-8.8-6.2-13.5-1.1-3-2.2-6.1-3.5-8.9l-.1-.3.3-.1c10.2-5.9 21.9-8.8 34.5-8.8 27.5 0 56.5 14.4 70.5 35 6.5 2.4 11.3 6.5 15.5 10.6 7.5 2.3 16.2 5.2 23.2 9.6 3.8 0 7.4.4 10.8.9l.3.1-.2 1.7zm-12.8-.6h12.2l.1-.4c-3.3-.5-6.8-.8-10.5-.9h-.2c-7-4.4-15.6-7.4-23.2-9.6l-.1-.1c-4.2-4.1-9-8.3-15.4-10.6h-.1l-.1-.1c-13.9-20.5-42.7-34.8-70-34.8-12.5 0-23.9 2.9-34 8.6 1.3 2.7 2.4 5.8 3.4 8.7 1.6 4.5 3.3 9.2 5.8 13 3.8-5.5 8.7-11.4 16.3-14.3 6.7-2.5 13.6-3.8 20.6-3.8 26.3 0 48.6 17.6 64.8 30.5 2.4 1.9 4.8 3.8 6.9 5.4 8.6.7 15.8 3.4 23.5 8.4zm121.9 177.6c-1.9 0-4.3-3-6.6-5.9-1.5-1.8-2.9-3.6-4.1-4.4l-.1-.1c-7.8-10.5-18.3-18.7-28.4-26.6-3.4-2.7-6.9-5.4-10.3-8.2-12.1-2.6-23.5-6.2-34.4-9.7-6.1-1.9-12.4-4-18.8-5.8h-.1c-9.2-5.7-16.5-13.5-23.7-21-13.9-14.6-28.3-29.7-56.6-30.3-4.7 1.9-8.5 4.9-12.1 7.8-5.2 4.1-10.7 8.4-18.9 9.7h-.3l-.1-.3c-2.6-8.6 3.6-10.6 9.6-12.6 4-1.3 8.2-2.7 9.8-6l.1-.2h.2c4.4-.1 7.5-1.5 10.7-3 .6-.3 1.2-.6 1.8-.8h.1c.9-.1 1.7-.1 2.6-.1 2.2 0 4.1.3 5.9.6 1.8.3 3.7.6 5.8.6.7 0 1.4 0 2.1-.1h.2c13.9 7.3 25.9 16.9 37.5 26.1 17.2 13.7 35 27.9 59.4 34.9 25.6.7 38.7 14.3 51.3 27.5 5.4 5.7 11.1 11.5 17.6 16.2l.1.1v.1c.2 1.3.1 2.9 0 4.5-.2 2.5-.4 5 .9 5.9l.3.2-.2.3c-.3.3-.8.6-1.3.6zm-10.3-10.8c1.2.9 2.6 2.7 4.1 4.5 2.5 3 5.3 6.5 6.8 5.4-1.2-1.2-1-3.8-.8-6.3.1-1.5.2-3 0-4.2-6.5-4.7-12.2-10.6-17.6-16.2-12.6-13.1-25.6-26.6-50.9-27.3h-.1c-24.5-7.1-42.4-21.3-59.6-35.1-11.5-9.2-23.5-18.7-37.3-26-.7.1-1.4.1-2.1.1-2.2 0-4.1-.3-5.9-.6-1.8-.3-3.7-.6-5.8-.6-.8 0-1.6 0-2.4.1-.6.3-1.2.5-1.8.8-3.1 1.4-6.3 2.9-10.7 3-1.8 3.4-6 4.8-10.1 6.2-5.9 2-11.5 3.8-9.3 11.6 7.9-1.4 13.2-5.5 18.3-9.5 3.7-2.9 7.5-5.9 12.4-7.9h.2c28.6.6 43.1 15.8 57.1 30.5 7.1 7.5 14.4 15.2 23.5 20.9 6.4 1.8 12.7 3.8 18.8 5.8 11 3.5 22.3 7.1 34.5 9.7l.1.1c3.4 2.8 6.9 5.6 10.3 8.2 10 8.1 20.5 16.3 28.3 26.8z" fill="#221f1f"/><path d="M758.4 467.6c-1.3 0-2.5-1-3.6-2.1-1.6-1.5-3.2-2.9-5.4-1.4l-.3.2-.1-.3c-1-1.3-1.3-2.9-1.1-4.9-8.7-7.7-16.5-16.5-24.1-25-7.3-8.2-14.8-16.8-23.2-24.2-2.6-.4-4.3-1.6-6-2.8-1.2-.8-2.3-1.6-3.6-2.1-1.8 0-3.5-.1-5.1-.2-6-.3-11.7-.6-19 1.2h-.2c-16.8-1.7-28.7-14.7-40.2-27.4-4.8-5.3-9.3-10.2-14.2-14.4-7.2-6.2-21-16.4-32.7-15.4-8.5.8-13.6 6.8-19 13.3-5.6 6.7-11.4 13.7-21.6 14.8l-.5.7c-2.1 3.1-4.2 6-4.2 8.7h-.6c0-2.9 2.1-5.9 4.3-9.1l.7-.9h.1c10-1.1 15.8-7.9 21.3-14.6 5.5-6.5 10.6-12.7 19.4-13.5 11.9-1 25.9 9.3 33.2 15.6 4.9 4.2 9.4 9.2 14.3 14.5 11.4 12.5 23.2 25.5 39.8 27.1 7.4-1.7 13.1-1.5 19.1-1.2 1.6.1 3.4.2 5.1.2h.1c1.5.6 2.7 1.4 3.8 2.2 1.7 1.2 3.4 2.3 5.8 2.7h.1l.1.1c8.4 7.5 16 16 23.3 24.3 7.6 8.6 15.4 17.4 24.2 25.1l.1.1v.2c-.3 1.8 0 3.2.8 4.4 2.5-1.5 4.3.2 5.9 1.7 1.4 1.3 2.7 2.5 4.2 1.6-12-23.9-12.4-80.8 3.1-102.8 1.2-1.7 2.4-1.5 3.6-1.4 1 .1 2 .3 3.2-.6.5-2-.3-2.5-1.3-3.1-.6-.3-1.2-.7-1.6-1.4l-.1-.2.1-.2c6.9-11.1 8.3-27.6 8.6-42.3-7.1-6.5-13.2-14.2-19-21.7-16.2-20.8-33-42.2-74.6-38.3h-.2c-28.4-9.3-53-24-72.7-35.9l-.1-.1c-15.2-16.1-34.2-34.2-59-46.4-23.4-2-42.5 2.3-60.9 6.5-8.4 1.9-17.2 3.9-26.2 5.2l-.1-.6c9-1.3 17.7-3.3 26.2-5.2 18.5-4.2 37.6-8.4 61.1-6.5h.1c24.9 12.3 43.9 30.4 59.2 46.6 19.7 11.8 44.2 26.5 72.5 35.8 41.9-4 58.8 17.6 75.1 38.5 5.9 7.5 11.9 15.3 19.1 21.7l.1.1v.1c-.4 14.7-1.7 31.3-8.6 42.6.3.4.7.7 1.2 1 1.1.6 2.3 1.3 1.6 3.9v.1l-.1.1c-1.4 1-2.7.9-3.7.7-1.2-.2-2.1-.3-3 1.1-15.5 21.9-14.9 78.9-2.9 102.4l.1.3-.2.2c-.5.4-1 .6-1.6.6zm-8.8-14.9l-.4-.2c-9.9-4.1-17.1-13.6-24.7-23.7-9.7-12.9-19.8-26.2-36.3-28.6-5.1-.8-9.9-.5-14.5-.3-7.1.3-13.8.7-20.5-2.6-10.2-5.1-18.2-13.9-26.7-23.3-10.4-11.4-21.1-23.2-36.2-28-2.7.5-4.6 0-6.4-.4-1.1-.3-2.1-.5-3.2-.6-9.2 3.7-16.1 9.9-22.8 15.9-7.3 6.6-14.9 13.5-25.7 17l-.4.1v-.5c.2-4.3.5-8.3.8-12.6.5-6.5 1.1-13.3 1.1-21.3v-.3l.2-.1c7.1-1.7 12.1-5.6 17-9.4 6.9-5.3 13.4-10.4 24.8-9 5.9.7 15.1 4.6 20.5 8.8 6.1 4.7 12.7 11.1 19 17.2 1.8 1.7 3.5 3.4 5.2 5.1 6.7 6.4 14 11.7 20.5 16.3 2 1.4 3.8 2.7 5.6 4 9.1 1.8 17.5 4.5 25.7 7 7.6 2.3 15.4 4.8 23.7 6.6l.1.1c21.7 15.4 40 34.6 53.4 49.5l.1.1v.1c.5 4.2.4 5.9.2 8.8-.1 1-.1 2.3-.2 3.8l.1.5zm-61.3-53.2c16.8 2.5 26.9 15.9 36.7 28.9 7.5 9.9 14.5 19.2 24 23.3.1-1.4.1-2.4.2-3.4.2-2.9.3-4.5-.2-8.6-13.4-14.9-31.5-33.9-53.2-49.3-8.3-1.8-16.1-4.2-23.6-6.6-8.2-2.5-16.6-5.2-25.7-7l-.1-.1c-1.8-1.3-3.6-2.6-5.6-4-6.5-4.6-13.9-9.9-20.6-16.3-1.7-1.7-3.5-3.4-5.3-5.1-6.3-6.1-12.8-12.5-18.9-17.2-5.3-4.1-14.4-8-20.2-8.6-11.1-1.4-17.5 3.6-24.3 8.9-4.9 3.8-9.9 7.7-17 9.5 0 8-.6 14.7-1.1 21.1-.3 4.1-.6 8-.8 12.1 10.4-3.5 17.8-10.2 25-16.7 6.7-6.1 13.7-12.4 23-16.1h.2c1.2 0 2.4.3 3.4.6 1.8.4 3.6.9 6.2.4h.2c15.3 4.9 26.1 16.7 36.5 28.2 8.5 9.3 16.5 18.1 26.5 23.1 6.5 3.2 13.1 2.9 20.2 2.6 4.5-.2 9.3-.4 14.5.3zm58.9 34.2c-1.9 0-4.3-3-6.6-5.9-1.5-1.8-2.9-3.6-4.1-4.4l-.1-.1c-7.8-10.5-18.3-18.7-28.4-26.6-3.4-2.7-6.9-5.4-10.3-8.2-12.1-2.6-23.5-6.2-34.4-9.7-6.1-1.9-12.4-4-18.8-5.8h-.1c-9.2-5.7-16.5-13.5-23.7-21-13.9-14.6-28.3-29.7-56.6-30.3-4.7 1.9-8.5 4.9-12.1 7.8-5.2 4.1-10.7 8.4-18.9 9.7h-.3l-.1-.3c-2.6-8.6 3.6-10.6 9.6-12.6 4-1.3 8.2-2.7 9.8-6l.1-.2h.2c4.4-.1 7.5-1.5 10.7-3 .6-.3 1.2-.6 1.8-.8h.1c3.4-.4 6 .1 8.5.5 2.4.4 4.8.8 8 .5h.2c13.9 7.3 25.9 16.9 37.5 26.1 17.2 13.7 35 27.9 59.4 34.9 25.6.7 38.7 14.3 51.3 27.5 5.4 5.7 11.1 11.5 17.6 16.2l.1.1v.1c.2 1.3.1 2.9 0 4.5-.2 2.5-.4 5 .9 5.9l.3.2-.2.3c-.4.3-.9.6-1.4.6zm-10.3-10.8c1.2.9 2.6 2.7 4.1 4.5 2.1 2.6 4.5 5.6 6.1 5.6.2 0 .5-.1.7-.2-1.2-1.2-1-3.8-.8-6.3.1-1.5.2-3 0-4.2-6.5-4.7-12.2-10.6-17.6-16.2-12.6-13.1-25.6-26.6-50.9-27.3h-.1c-24.5-7.1-42.4-21.3-59.6-35.1-11.5-9.2-23.5-18.7-37.3-26-3.1.3-5.6-.1-8-.5-2.5-.4-5-.8-8.3-.5-.6.3-1.2.5-1.8.8-3.1 1.4-6.3 2.9-10.7 3-1.8 3.4-6 4.8-10.1 6.2-5.9 2-11.5 3.8-9.3 11.6 7.9-1.4 13.2-5.5 18.3-9.5 3.7-2.9 7.5-5.9 12.4-7.9h.2c28.6.6 43.1 15.8 57.1 30.5 7.1 7.5 14.4 15.2 23.5 20.9 6.4 1.8 12.7 3.8 18.8 5.8 11 3.5 22.3 7.1 34.5 9.7l.1.1c3.4 2.8 6.9 5.6 10.3 8.2 10.1 8.1 20.6 16.3 28.4 26.8zm9.7-9l-.4-.2c-9.7-4.2-16.6-11.3-23.3-18.1-11.2-11.4-22.7-23.3-47.3-21.6-13.4-3-24.2-11.8-33.8-19.7-3.8-3.1-7.4-6-10.9-8.5-1.8-1.3-4-2.1-6.2-3-1.2-.5-2.3-1-3.5-1.5-1.6-.8-2.8-1.5-3.9-2.3-2-1.5-3.8-3.9-5.5-6.2-2-2.7-3.9-5.2-6-6.3-1.5-.8-2.9-1.6-4.4-2.3-10.8-5.8-21-11.2-36.7-11.2h-.4c-4 1.8-8.1 3.5-12.1 5.2-7 2.9-14.2 5.9-20.8 9.4l-.4.2-.1-.4c-4.7-16.8-12.7-33.4-21.1-50.9-4.7-9.9-9.6-20.1-13.9-30.3 1.8 14 7.4 24.4 12.8 34.5 4.3 7.9 8.6 16.1 11.2 26h1c1.2 0 2.6 0 2.9 1.2l.1.4H521c6.9 16.3 12.7 44.3 6.6 70.5v.2h-.2c-1.4.2-2.2 1-3 1.8-1 1-1.9 1.9-3.8 2h-.3l-.1-.3c-2-9.3-5.1-18.7-8-27.7-3.5-10.6-6.8-20.6-8.4-30.4-.6-1.2-1.1-1.2-1.7-1.2-.8 0-1.6-.1-2.2-1.7l-.1-.1.1-.1c2.5-4.3-1.3-12.7-4.1-18.9-.4-.9-.8-1.8-1.2-2.6v8.1h-.6v-9.7l.6-.1c.5 1.2 1.1 2.6 1.8 4.1 2.8 6.2 6.6 14.8 4.1 19.4.5 1.2.9 1.2 1.5 1.2.7 0 1.5-.1 2.3 1.6v.1c1.6 9.7 4.9 19.7 8.4 30.3 2.9 9 6 18.2 8 27.5 1.5-.2 2.3-1 3.1-1.8.8-.8 1.7-1.7 3.2-2 6-26.2.1-54.3-6.8-70.4l-.2-.4h2.8c-.4-.3-1.1-.3-2-.3h-1.5l-.1-.2c-2.5-9.9-6.9-18.1-11.2-26.1-5.7-10.7-11.6-21.7-13.1-37l.6-.2c4.5 11 9.7 21.8 14.8 32.4 8.4 17.5 16.3 33.9 21 50.7 6.5-3.4 13.6-6.4 20.5-9.2 4-1.7 8.2-3.4 12.2-5.2h.5c15.9 0 26.1 5.5 37 11.3 1.4.8 2.9 1.6 4.4 2.3 2.2 1.2 4.2 3.8 6.2 6.5 1.7 2.3 3.5 4.6 5.4 6.1 1 .8 2.2 1.5 3.8 2.2 1.1.5 2.3 1 3.5 1.5 2.3.9 4.5 1.8 6.4 3.1 3.6 2.5 7.2 5.4 11 8.5 9.5 7.8 20.2 16.5 33.4 19.5 24.9-1.7 36.5 10.2 47.8 21.8 6.6 6.7 13.4 13.7 22.7 17.8.9-4.7 1.6-9.8 2.3-14.7 1.9-13.2 3.8-26.9 10.1-36.2-19.8-11.8-39.5-26-50.2-49.4-6.6-8.7-15.1-15.9-23.3-22.8-5.2-4.4-10.5-8.9-15.4-13.8-7.7-2.2-13.9-6.2-19.9-10.1l-.8-.5c-2-1.3-4.1-2.7-6.4-3.9-9.4-1.1-17.3-3.9-25-6.6-6.7-2.3-13.6-4.8-21.5-6.1h-.1l-.1-.1c-11.6-14.7-38.5-30.5-63.5-31.4-15.6-.6-28.3 4.4-37.8 14.9.1 1.1.3 2.1.5 3 .4 1.9.8 3.9.4 6.6l-.1.7-.5-.5c-4.7-5.2-7.6-12.4-10.4-19.4-1.6-3.9-3.2-7.9-5.1-11.5h-6l.1-.4c1.1-7.2-3.4-12.5-7.7-17.6-1.2-1.4-2.3-2.7-3.3-4.1 7.4 19.2 14.7 41.3 21.7 62.6 3.2 9.8 6.3 19.1 9.3 27.9v10.8l-.6.1C483 257 470.4 218 454.3 181.9l.6-.3c15.8 35.4 28.1 73.6 38.2 106.5v-8.5c-3-8.7-6-18-9.3-27.8-7.4-22.3-15-45.4-22.7-65.2l.6-.3c1.3 2.1 3 4.1 4.8 6.3 4.3 5.1 8.8 10.4 7.9 17.8h5.6l.1.2c2 3.7 3.6 7.8 5.2 11.8 2.7 6.7 5.4 13.5 9.8 18.6.2-2.3-.1-3.9-.5-5.7-.2-1-.4-2.1-.5-3.2v-.1l.1-.1c9.5-10.5 22.8-15.7 38.4-15.2 25.1.9 52.2 16.7 63.9 31.5 7.9 1.3 14.8 3.7 21.5 6.1 7.6 2.7 15.6 5.4 24.9 6.5h.1c2.3 1.3 4.5 2.7 6.5 4l.8.5c6 3.8 12.2 7.8 19.9 10h.1l.1.1c4.8 4.9 10.2 9.4 15.4 13.8 8.2 7 16.7 14.2 23.4 23 10.8 23.4 30.5 37.6 50.3 49.4l.3.2-.2.3c-6.3 9.1-8.3 22.9-10.1 36.2-.7 5-1.4 10.2-2.4 15.1l-.5.5zM532 383c-.3 0-.6-.1-1-.3l-.2-.1v-3.3l.2-.1c.9-.4 1.6-.3 2.1.3.6.8.6 2.1 0 2.9-.2.4-.6.6-1.1.6zm-.5-.8c.5.2.9.1 1.2-.2.4-.5.4-1.6 0-2.1-.3-.3-.7-.4-1.2-.2v2.5zM764 355.6h-.2c-24.3-1.4-36.4-20-48.1-38.1-2.8-4.4-5.5-8.5-8.4-12.4-24.2-22.9-45.7-37.8-69.6-48.4h-12.6l-.1-.1c-7.7-5-14.9-7.7-23.1-8.7h-.1l-.1-.1c-2.1-1.6-4.5-3.5-7-5.4-20-15.8-50.2-39.7-84.8-26.5-7.6 2.9-12.5 8.9-16.3 14.5l-.3.4-.3-.4c-2.7-3.9-4.5-8.8-6.2-13.5-1.1-3-2.2-6.1-3.5-8.9l-.1-.3.3-.1c16.9-9.7 37.9-11.5 59.3-5.1 19.2 5.7 36.3 17.4 45.7 31.3 6.5 2.4 11.3 6.5 15.5 10.6 7.5 2.3 16.2 5.2 23.2 9.6 3.8 0 7.4.4 10.8.9 16 2.5 26.9 10.3 37.6 17.8 7.4 5.3 15.1 10.7 24.4 14.3 10.3 7.1 18.4 16.5 26.2 25.6 7.6 8.8 15.5 18 25.3 24.9l.1.1c1.3 2.2 4 3.9 6.6 5.4 4.7 2.9 9.5 5.8 6 12.3l-.2.3zm-138.7-99.5h12.6c24 10.6 45.6 25.6 69.9 48.6 2.9 3.9 5.5 8.1 8.4 12.5 11.6 17.9 23.5 36.4 47.4 37.8 3-5.8-1.3-8.5-5.9-11.3-2.6-1.6-5.3-3.3-6.8-5.6-9.8-7-17.7-16.1-25.3-25-7.8-9.1-15.9-18.4-26-25.4-9.3-3.6-17-9-24.5-14.3-10.6-7.5-21.5-15.2-37.3-17.7-3.4-.6-7-.9-10.8-.9h-.2c-7-4.4-15.6-7.4-23.2-9.6l-.1-.1c-4.2-4.1-9-8.3-15.4-10.6h-.1l-.1-.1c-9.4-13.8-26.3-25.5-45.4-31.2-21.1-6.3-41.9-4.5-58.6 4.9 1.3 2.7 2.4 5.8 3.4 8.7 1.6 4.5 3.3 9.2 5.8 13 3.8-5.5 8.7-11.4 16.3-14.3 35-13.3 65.3 10.8 85.4 26.6 2.4 1.9 4.8 3.8 6.9 5.4 8.7.9 15.9 3.6 23.6 8.6zM766.9 345l-.3-.1c-15.4-6.6-25.5-18.6-35.4-30.3-10.6-12.6-21.7-25.7-39.2-31.7l-.1-.1c-10.9-9.8-22.3-17.3-34.8-22.9-10.8-4.8-22.5-8.1-34.9-10-15.1-5.5-27.1-15.6-38.8-25.4-21.2-17.8-43.2-36.3-84.2-26.9-1.7.6-3.3 1.4-4.9 2.1-4.4 1.9-8.9 3.9-14.5 4.7h-.1l-.1-.1c-6.1-4.1-7.3-6.5-9.5-10.9-1-2-2.2-4.4-4.2-7.7l-.3-.4.5-.1c9.9-1.1 19.5-3.4 28.9-5.7 14.6-3.5 28.4-6.8 42.9-6 22.4 1.3 39.8 18.8 55.2 34.3 4.9 4.9 9.5 9.6 13.8 13.2 14.6 9.6 31.4 18.9 54.4 29.8 3 1.5 6.2 3 10.5 5 4.9.6 10.2 1.1 15.3 1.5 14.9 1.3 30.2 2.6 40.1 9.2 3.4 3.5 6.9 7 10.2 10.4 13 13 26.5 26.5 35.4 44v.2c-.9 9.4-2.8 17.1-5.8 23.4l-.1.5zm-74.6-62.7c17.7 6.1 28.7 19.2 39.4 31.9 9.7 11.5 19.8 23.5 34.9 30 2.9-6.2 4.7-13.6 5.6-22.8-8.9-17.4-22.3-30.8-35.3-43.8-3.4-3.4-6.8-6.9-10.2-10.4-9.6-6.5-24.9-7.8-39.7-9-5.1-.4-10.4-.9-15.3-1.5h-.1c-4.3-2-7.5-3.5-10.5-5-23-11-39.8-20.2-54.5-29.9-4.4-3.7-9-8.4-13.9-13.3-15.3-15.4-32.6-32.9-54.8-34.1-14.3-.8-28.1 2.5-42.7 5.9-9.2 2.2-18.8 4.5-28.5 5.6 1.9 3 3 5.4 4 7.3 2.2 4.4 3.3 6.6 9.1 10.6 5.5-.8 9.9-2.8 14.2-4.6 1.6-.7 3.3-1.4 5-2.1 41.4-9.4 63.4 9.1 84.8 27.1 11.6 9.7 23.6 19.8 38.5 25.3 12.3 1.9 24.1 5.3 35 10 12.6 5.4 24 12.9 35 22.8z" fill="#221f1f"/><path d="M622.2 339.1l-.1-.1c-2.9-2.7-4.1-7.1-5.3-11.4-.9-3.1-1.8-6.4-3.3-8.9-.7-.1-1.3-.2-2-.3-5.8-.7-11.8-1.5-16.4-3.6l-.2-.1v-.2c1-5.3 4.8-7.9 8.4-10.4 2.9-2 5.6-3.9 7.1-7.1-.5-3.9-1-6.4-1.3-8.5-.6-3.3-1-5.9-1.6-11.7v-.3h.3c.9-.1 1.8-.2 2.6-.2 4.7 0 7.7 1.8 10.4 3.4 2.3 1.4 4.5 2.6 7.4 2.6h.8c2.4-1.1 4.2-2.9 5.9-4.6 2.9-2.9 5.9-5.8 11.6-6h.2l.1.2c1.6 5.4 4.2 10 6.6 14.4 1 1.9 2.1 3.8 3 5.8 3.7 1.7 7.8 1.9 11.4 2.1 3.6.1 6.8.3 8.9 1.8l.2.1-.1.2c-1.7 5-6 7.5-10 10-1.9 1.1-3.8 2.3-5.4 3.6.9 3.3 2.1 6.4 3.3 9.4 1.7 4.5 3.5 9.2 4.4 14.7l.1.4h-.5c-1.3 0-2.1.5-2.5 1.7l-.1.4-.3-.2c-1.2-.7-2.4-1.4-3.7-2.1-6.7-4-13.6-8-22.3-7.5-3 1.3-5.1 3.6-7.2 5.8-2.7 2.9-5.5 5.9-10.3 6.8l-.1-.2zm-26.7-24.7c4.5 2 10.3 2.7 16 3.4l2.1.3h.1l.1.1c1.7 2.6 2.6 5.9 3.5 9.2 1.2 4.1 2.3 8.4 5 11 4.5-.9 7-3.7 9.7-6.6 2.1-2.3 4.3-4.6 7.5-6h.1c8.9-.6 15.9 3.6 22.7 7.6 1.1.7 2.2 1.3 3.3 2 .5-1.1 1.4-1.7 2.7-1.8-.9-5.3-2.7-9.8-4.3-14.2-1.2-3.1-2.4-6.2-3.3-9.7l-.1-.2.2-.1c1.7-1.5 3.7-2.6 5.7-3.8 4.1-2.5 8-4.8 9.7-9.4-2-1.3-4.9-1.4-8.3-1.6-3.7-.1-8-.3-11.8-2.2h-.1v-.1c-1-2-2-4-3.1-5.9-2.4-4.4-4.9-9-6.5-14.3-5.3.3-8 3-10.9 5.9-1.8 1.8-3.6 3.6-6.1 4.8h-1c-3 0-5.3-1.3-7.7-2.7-2.8-1.6-5.6-3.3-10.1-3.3-.7 0-1.5 0-2.2.1.5 5.6 1 8.2 1.5 11.4.4 2.2.8 4.7 1.3 8.6v.2c-1.6 3.4-4.5 5.4-7.4 7.4-3.8 2.7-7.2 5-8.3 9.9z" fill="#221f1f"/><path d="M583.7 379.3s-53.4 6.6-66.8 7.2c-13.4.5-59.5 6.4-111.6-.8-52.1-7.2-73.5-15.5-73.5-15.5l-.3 10.3s95.1 16.4 114.3 16.1c19.3-.3 132.6-6.5 138-9 0 0-.9-6-.1-8.3m20.2 202.3c30.2 3 36.7 6.2 45.1 7.4 8.3 1.2 13.7-.8 14.2 8.6s-19.6 9-19.6 9l-41.6-7.3s-10-18.9 1.9-17.7m-11.6.4l-2.9 9.5-98.8-14.3-41.5-10.9 4.4-6.1 11.6 1.8s34.5 5.5 42.8 7.4c8.3 2 35.3 6.1 39 6.4 3.8.2 45.4 6.2 45.4 6.2"/><path d="M595.4 598.7s-56.2-8.1-66.1-11.2c-10-3.1-58.3-11.8-58.3-11.8l-18.6-4-61.9-11.1s2.1-8.7 6.9-9c4.7-.3 40.3 6.1 43.4 7.5 3.1 1.4 45.4 10.7 50.8 11.9 5.4 1.2 65.7 11.3 65.7 11.3l53.4 6.5-15.3 9.9z"/><path d="M420.4 729.3s10.9-137.9 13.2-145.5c2.3-7.5 2.6-130.7 2.6-130.7s7.2-154.2 5.6-163.5c-1.6-9.4 11.8-159.9 7.2-181 0 0 6.9-5.5 12.1-1.8 0 0-4.6 130.5-4.6 149.7 0 19.3-6.2 75.3-2 164.8 0 0-1.5 20.3-1.6 43.6-.1 23.2 3.4 109.4 3.2 122.6-.2 13.3-3.2 55.5-2.8 63.6.4 8.1-3.1 32.5-3.1 32.5s-2.9 40.7-2.8 44.7c.1 4.1-27 1-27 1"/><path d="M434.7 557.4l7 8.5s-3.5 8.4 0 0 3.7-26 3.7-26c7.2-48.4-5.2-144.3-5.2-144.3 7.8-93.2 15-288 15-288l4.3-.7s-4.3 129.8-2.9 170c1.4 40.2-11.2 136.8-4 158.2 7.2 21.4.7 189.6 1.3 210.4.7 20.8-7.2 84.9-7.2 84.9l-27.2-6.5 1.7-14.6s8.8 3.7 13.7-8.4c4.9-12.1 7.8-114.7 7.8-114.7l-7.6-10.3-.7-6.4.3-12.1z"/><path d="M683.4 600.1l-1 14s-8.3.8-18.6.8-75.9 1.6-106.3 5.9c-30.4 4.3-80.4-.4-80.4-.4s-54.4-2.3-67.6-1.9c-13.2.4-56.3 2.3-83.8-.8-27.4-3.1-52.9 1.2-74.5-1.2-21.6-2.3-66.1-8.6-66.1-8.6l1-12.9s39.2 2.4 45.6 2.7c6.4.4 49 3.5 51.4 3.1 2.5-.4 49 1.2 52.9 0 3.9-1.2 63.2 1.2 67.1 1.6 3.9.4 69.1 1.2 77.2 1.2 8.1 0 67.9.4 71.8 0 3.9-.4 31.4 1.9 41.2-1.6 9.8-3.5 20.6-1.2 20.6-1.2s56.3-3.1 59.3-2.7c2.8.3 10.2 2 10.2 2" clip-rule="evenodd" fill-rule="evenodd"/><path d="M330.8 373.6s39.9 11.7 74 15.4c34.1 3.7 111.2.6 117.1-.2 5.9-.8 57.8-4.3 60.8-5.7 3-1.4 1.7 4.5 1.7 4.5s-13.7 3.3-23.8 4.1c-10.1.8-204.3 12.1-230.8-10 0 .1 3.2-4 1-8.1"/><path d="M427.1 111.5l-9.6 3.8s76.9 177.6 76.9 183.8c0 6.2 31.4 94.8 35.3 102.6 3.9 7.8 37.4 124.8 38.9 132.5C570 542 637 712.8 637 712.8s13 50.8 13.6 72.5c.5 21.7 0 0 0 0l25.4-13.7S627 607 587.8 536.7c-39.2-70.3-62.1-229.2-94.7-275-32.7-45.8-56.2-137-61.4-142.2-5.3-5.2-4.6-8-4.6-8" clip-rule="evenodd" fill-rule="evenodd"/><path d="M606.6 579.3c10.5 35 73.2 176.1 72.6 182.9-.6 6.8-4.2 17.7-4.2 17.7l-24.6 2.1" clip-rule="evenodd" fill-rule="evenodd"/><path d="M656.4 735.1S610 625.2 589.8 570.5c-20.3-54.7-77.7-254.7-86.2-273.9C495.1 277.3 422 115 421 111.5l4.9-1.9s26.5 54.6 28.9 60c2.4 5.4 57.5 131.2 69 157.3M650.5 782s-.7-33.8-4.6-39l10.5-7.8" clip-rule="evenodd" fill-rule="evenodd"/><path d="M302.1 379.1s-5.1 9.2 1 14.5c0 0 112 5.7 132.5 7.6 20.6 2 35.8 1.4 35.8 1.4s63.7-2.3 90.6 2.3c0 0 12 1.4 15.2-.6 0 0 2.9-9-.7-10.6 0 0-44.3-2.9-92.9-2.7-48.5.2-145.3-6.4-145.3-6.4l-36.2-5.5zm21.6-1s7.7 1 8.6 0c.9-1-2-7-2-7l-5.3-.1s-3 3.4-1.3 7.1"/><path d="M493.4 119.5s-2-4.9-7.8-4.9c-5.9 0-18.3 19.3-26.8 38.8-8.5 19.5-22.5 33.3-46.7 110.9 0 0-12.3 44.1-33.3 87.5-14.4 29.7-38.9 97.4-43.4 110.7-4.6 13.3-37.2 120.1-37.2 120.1s-25.5 67.2-37.2 97.1c-11.8 30-21.6 73.2-21.6 78.9 0 5.7 24.5 7.3 24.5 7.3s8.8 6.8 19.6-53.6 43.4-127.1 49.3-161.2c5.9-34.1 31-103.6 31-103.6s30.1-91.7 33.3-98.2c3.3-6.5 30.7-92.4 30.7-92.4s44.3-113.4 65.6-137.4" clip-rule="evenodd" fill-rule="evenodd"/><path d="M521.6 395.2l-6.3-3.2s54.8-1.8 62.3 2.7c0 0 .3 8.2-1 10-1.3 1.8-47-4.4-61-3-14 1.5-73.3.1-85.7 0-12.3-.1-60.2-6.1-71-6.2-10.8-.1-56.3-2.3-57.5-3.8-1.2-1.5-1.5-7.5-.2-8.9 1.3-1.3 33.3 4.3 35.8 4.5 2.5.1 4.3-2.7 4.3-2.7s40 1.3 45.5 2.8c0 0 1.5 1.6 4 4.2 2.7 2.5 77.4 1.7 130.8 3.6m67-17.4s4.1 2.2 1.3 9.1c0 0-7.5.3-7.4-5.2.2-5.4 6.1-3.9 6.1-3.9"/><path d="M460.2 408.2l17.3 4.6 2.3-7s-7.7-3.8-10.3-3.8c-2.6 0-5.2 1-6.7 3.5-1.4 2.4-2.6 2.7-2.6 2.7m-7.7-.4l11.1-3.9-11.1-1.6z" clip-rule="evenodd" fill-rule="evenodd"/><path d="M247 601.3s-3.9-1.8-5.4-5.5c-1.5-3.7 4.4-10.3 8.1-10.7 3.7-.4 39.7-4.7 40.9-5.3 1.2-.6 21.1-2.3 37-1.2 15.9 1.2 67.6-7 67.6-7l26.5-5.1 18.4-1-2.7 13.1H433s-28.4 4.5-29.9 5.1c-1.5.6-43.6 5.5-43.6 5.5l-35.5 4.1c-.1 0-44.7 1-77 8"/><path d="M252.6 595.5l56.3-7.4 11.8-2s70.1-9.2 116.1-13.7l-2.2 6.3s-5.1 0-27.7 4.7c-22.5 4.7-34.8 4.9-34.8 4.9l-47 5.9s-23.8-2.1-41.9 1.4c-18.1 3.5-32.6 5.7-32.6 5.7l2-5.8z"/><path d="M491.7 119.5s-28.9 21.5-82.8 178.1-59.8 171.9-59.8 171.9-38.4 109.8-86.7 276.2l-4.9 8.2 11.3-.8 11.3-15.6s.7-20.6 2.5-26.6 3.4-7.4 9.3-28.5 19.6-61.3 19.6-61.3 8.8-23.4 15.2-50c6.4-26.6 14.2-56.2 19.6-69.9 5.4-13.7 17.1-54.3 19.1-62.1 2-7.8 21.6-66 22.5-68.4 1-2.3 26.1-54.8 28.4-77 2.3-22.1 25.2-75 25.2-75s51.3-95.3 51.6-96.1c.3-.7-1.4-3.1-1.4-3.1" clip-rule="evenodd" fill-rule="evenodd"/><path d="M682.8 600.5s14.2-6.7-85.8 2.2c0 0 2 4.6-21.4 5.7-23.4 1.2-136-5.4-167.6-3-31.6 2.4-50.2-5.5-53.7-5.4 0 0-87.8.4-93.7 1.6-6 1.2-25.1 1-47.2.2s-29.1-2.4-29.1-2.4l-2.5 7.7s21.9 4.8 46 6.3c24.1 1.6 21.9-1.2 55.2 1.6 33.3 2.8 46.7.6 52.5 1.2 5.7.6 17.4 2.8 81.5 1.8 0 0 37 2 58.7 2 0 0 2.2-.4 10.2-.2 8 .2 30.8-1.6 79.1-4.2 48.2-2.6 37.8 2 119.3-1.6 0 .1 2-9.6-1.5-13.5"/><path d="M650.5 782s-.7-33.8-4.6-39l10.5-7.8" clip-rule="evenodd" fill-rule="evenodd"/><path d="M483.1 443.9h68.2c-5.4 9.3-10.6 18.8-16.7 27.4h-70.9c-11.4-18.5-21.4-38.3-32.8-56.9 6.4-9.6 12.2-19.8 19.4-28.8.6-.1.6.3.7.7 10.7 19.1 21.8 38 32.1 57.6m67.5 117h-35.5c-10.9-19.2-21.5-38.7-32.8-57.5 6.2-9.4 11.8-19.4 18.7-28.1h32.1c-4.8 9.3-9.9 18.2-15.4 26.8 10.6 20 22.3 38.9 32.9 58.8m-78.2-62.2c2.3 4.2 5.6 8.4 4 15.4-.6 2.5-1.6 4.3-2.7 6-1.9 3-4.2 7.6-6.7 10.7-2.4-.9-2.8-3.9-4-6-2.4-4.1-4.6-7.7-7.4-12.7-1.2-2.2-3.2-4.6-3.3-6-.4-4.2 5.6-16.3 8-19.4 1.5-1.9 2.9-3.2 5.4 0 .4.5.2 1.4.7 2 .2.3 1.2.4 1.3.7.6 1 .8 2.5 1.3 3.3 1.4 2.6 1.7 3.1 3.4 6" fill="#fff"/><path d="M467 530.8c2.5-3.2 4.8-7.7 6.7-10.7 1-1.7 2.1-3.5 2.7-6 1.6-7-1.7-11.2-4-15.4-1.7-3-1.9-3.5-3.4-6-.5-.9-.7-2.4-1.3-3.3-.2-.3-1.1-.4-1.3-.7-.4-.6-.3-1.5-.7-2-2.4-3.2-3.9-1.9-5.4 0-2.4 3.1-8.4 15.3-8 19.4.1 1.4 2.1 3.8 3.3 6 2.8 5 5 8.6 7.4 12.7 1.2 2.1 1.5 5.1 4 6m-4 2.7c-.1-2.5-2-4.3-3.3-6.7-2.6-4.6-4.9-8.6-7.4-12.7-1.6-2.6-2.3-5.6-4-6.7-3.1-2-18-3.6-22.7-2-1.8 3.3 2 7.6 3.3 10 .7 1.3 1.6 2 2 2.7 1.8 3.1 2.6 6.5 4 8.7.9 1.3 2.3 2.2 3.4 2.7.2.1.4 1.2.7 1.4 6.1 3.5 14.2 2.5 24 2.6m3.5 0c-.1 1.2-1.9.6-1.5 2.3 3.6 8.2 8.6 16.3 12.8 23.3 1.5 2.5 2.1 7.1 6 6.8 1.9-3-1.2-6-2.3-8.3-4-8.1-9.3-15.2-12.8-23.3-.9-.1-1-1-2.2-.8m102.2-84.9c7.2 15.1 13.4 37.3 12.1 61.5-2.1 39-20 69.4-42.2 90.3-2.8 2.6-6.2 4.9-9.4 7.3-2.4 1.9-4.4 3.4-7.4 5.4-.9.6-1.2 1.5-2 2-.9.6-2.2.6-3.3 1.3-3.3 2.1-8.1 5.2-12.7 7.3-1.8.9-4.1 1.2-6 2-.3.1-1.1 1.3-1.3 1.4-9.3 2.8-19.2 5.8-31.4 7.3-5.7.7-14.4 1.7-22.7 1.3-36.4-1.7-67.2-18.4-87-38.1-21.3-21.3-35-47.8-39.5-85v-18.1c1.6-8.6 2.5-18.6 4.7-26.8 2.1-7.7 5.4-15.1 8.7-22.1 3.2-6.8 7.1-13.5 11.4-19.4 13-17.9 29.5-32.3 50.2-42.1 14.5-6.9 30.7-11.5 48.8-13.4h18.1c19.5 2.3 36.3 7.2 50.8 14.7 26.5 14 46.8 35 60.1 63.2m-17.4-4.7h-68.2c-10.3-19.6-21.3-38.4-32.1-57.5 0-.4-.1-.8-.7-.7-7.2 8.9-13 19.1-19.4 28.8 11.3 18.6 21.4 38.4 32.8 56.9h70.9c6-8.7 11.3-18.2 16.7-27.5m-36.1 117h35.5c-10.6-20-22.3-38.8-32.8-58.9 5.5-8.6 10.6-17.5 15.4-26.8h-32.1c-6.9 8.7-12.5 18.7-18.7 28.1 11.2 18.9 21.8 38.4 32.7 57.6m-54.9 38.2c1.7-2.7 4.1-5.8 4-8-.1-1.7-2.6-4.1-4-6.7-1.3-2.4-1.8-4-2.7-5.3-.9-1.4-1.4-3-2-4-1.1-1.9-2.4-3.5-3.3-5.4-6.9-12.4-14.1-26.5-20.1-36.1-23.2.2-45.8 1-69.6.7-2.4 3.8-5.5 8.4-7.4 11.4-.4.6-.2 1.3-.7 2-2.8 4.5-6.4 8.7-8 14h66.9c11 19.4 21.8 38.9 32.8 58.2 2.9-1.2 3.3-4.4 4.7-6.7.8-1.2 1.9-2.1 2.7-3.4 2.5-4 4.2-6.7 6.7-10.7M457 483.3c1.5-8.4-1.7-13.9-4-18-7.8-13.9-16.7-29.5-23.4-42.1-.7 0-.8-.5-1.3-.7-5.2 4.3-2.5 6.4.7 12 3 5.4 5.2 9.8 8 14.7 1.5 2.7 3.6 5.1 4 7.4 1.6 9.4-3.1 10.7-6 16.7 2.4-.9 4.9-.7 7.4 0 1 .3 3 2.4 3.3 2.7.6.5 1.5.1 2 .7.4.4.4 1.6.7 2 .4.6 1 .6 1.3 1.3 4.2 8.8-1.5 16.1-8.2 17.8-1.2.3-2.5.4-3.8.3-5.6-.4-10.8-5.8-11.4-11.4-.5-5 1-7.1 4-11.4-4.1 1.1-8.4 2.1-12 1.3-1.1-.2-3.8-1.4-4.7-2-2.1-1.5-3.3-5.1-5.4-8.7-1.7-2.9-3.8-6-5.3-8.7-.9-1.6-2.1-4.7-2.7-5.4-1.2-1.3-2.3-4.3-2.7-4.7-.5-.5-.2-.7-.7-1.3-1.7-2.4-4.3-3-7.4-2 1.3 4.9 4.3 9.2 6.7 13.4 2.4 4.2 4.9 8.3 7.3 12.7 3.9 6.9 8.4 16.2 12.7 22.1 1.4 2 1.8 2.7 3.3 3.3.2.1.4 1.2.7 1.4 6.5 4.5 13.9 5.1 21.7 3.1.6-.1 1.1-.3 1.7-.5.2-.1 1-1.2 1.3-1.3 4.7-2.4 7.1-5.2 9.4-9.4 1.3-2.2 2.4-3.3 2.8-5.3m-20.1-25.4c-1.3-4.2-3.8-8.1-6-12.1-2.5-4.5-5.5-10.8-8.7-13.4-4.6 4.2-1.6 6.7.7 10.7.5.9.8 2.4 1.3 3.3 2.8 4.8 6.3 12 9.4 14.1 1-.8 2.1-1.8 3.3-2.6m-5.4 10.7c.5-2.7-1.6-4.7-2.7-6.7-3.5-6.9-6.8-12.7-10.7-18.7-.9 0-.9-.9-2-.7-.7.9-1.8 1.3-2.7 2 .1 3.6 3.7 8 6.7 13.4 1.1 2 1.9 4.4 3.3 6.7 2.7 4.1 4.3 7.2 8.1 4m-14.7.7c1.3.1 2.2-.9 3.3-1.3-2.8-9-8.4-15.2-12-23.4-1.7-.6-5.2-1.3-6.7 0 .2.5 0 1.3.7 1.3.9 2.7 6.5 11.4 8.7 15.4.6 1.1.7 2.4 1.3 3.3 1.8 2.9 2.6 4.6 4.7 4.7m-4.7 38.8c1.1-1.8 2.7-3.5 2.7-5.4 0-1.5-2.4-4.5-4-7.4-3.3-5.8-6.6-11.5-9.4-16.1-1-1.7-1.4-3.4-2-4.7-.1-.2-1.2-.4-1.3-.7-.7-1.3-.7-2.7-1.3-4-.6-1.1-2-2.2-2.7-3.3-.4-.7-.4-1.5-.7-2-1.1-1.9-2.3-3.5-3.4-5.4-3-5.3-5.6-10.2-8-14.7h-34.1c10.4 20.2 22 39.1 32.8 58.9-1.3 2-2.8 3.9-4 6-1.3 2.2-2.1 4.6-3.3 6.7-.2.3-1.1.4-1.3.7-.4.5-.4 1.5-.7 2-2.1 3.3-4.6 6.2-5.4 10h33.4c4.1-6 9.1-14.4 12.7-20.6" fill="#ce2027"/><path d="M464.3 591c.1 2.2-2.3 5.4-4 8-2.5 4-4.2 6.7-6.7 10.7-.8 1.2-1.9 2.1-2.7 3.4-1.4 2.3-1.7 5.5-4.7 6.7-11-19.4-21.8-38.8-32.8-58.2h-66.9c1.6-5.4 5.3-9.5 8-14 .4-.7.3-1.4.7-2 1.8-3 5-7.5 7.4-11.4 23.8.4 46.4-.4 69.6-.7 5.9 9.6 13.2 23.7 20.1 36.1 1 1.8 2.2 3.5 3.3 5.4.6 1.1 1.1 2.6 2 4 .9 1.4 1.3 2.9 2.7 5.3 1.5 2.7 4 5 4 6.7m-4.7-64.2c1.4 2.4 3.3 4.2 3.3 6.7-9.8-.2-17.9.9-24.1-2.7-.3-.2-.4-1.2-.7-1.4-1.1-.5-2.5-1.3-3.4-2.7-1.4-2.2-2.3-5.6-4-8.7-.4-.7-1.3-1.4-2-2.7-1.3-2.5-5.2-6.8-3.3-10 4.7-1.6 19.6 0 22.7 2 1.8 1.1 2.5 4.1 4 6.7 2.6 4.3 4.9 8.3 7.5 12.8m-14.7-28.7c-.3.1-1.1 1.2-1.3 1.3-.6.2-1.1.3-1.7.5l-.5-2.1c6.8-1.7 12.5-8.9 8.2-17.8-.4-.8-.9-.8-1.3-1.3-.3-.4-.3-1.6-.7-2-.5-.6-1.4-.2-2-.7-.3-.2-2.3-2.4-3.3-2.7-2.4-.7-5-.9-7.4 0 3-6 7.7-7.3 6-16.7-.4-2.3-2.5-4.7-4-7.4-2.8-4.9-5-9.3-8-14.7-3.1-5.6-5.8-7.7-.7-12 .5.1.7.7 1.3.7 6.7 12.6 15.7 28.3 23.4 42.1 2.4 4.2 5.5 9.6 4 18-.3 2-1.4 3.1-2.7 5.4-2.2 4.2-4.5 7-9.3 9.4" fill="#fff"/><path d="M437.6 498.1c1.3.1 2.6 0 3.8-.3l.5 2.1c-7.8 2-15.3 1.3-21.7-3.1-.2-.2-.5-1.2-.7-1.4-1.6-.7-1.9-1.4-3.3-3.3-4.3-5.9-8.8-15.2-12.7-22.1-2.5-4.4-4.9-8.5-7.3-12.7-2.4-4.2-5.4-8.5-6.7-13.4 3.1-1 5.7-.4 7.4 2 .4.7.2.8.7 1.3.4.4 1.4 3.4 2.7 4.7.6.6 1.8 3.8 2.7 5.4 1.5 2.7 3.7 5.8 5.3 8.7 2.1 3.6 3.2 7.2 5.4 8.7.8.6 3.6 1.8 4.7 2 3.6.7 7.9-.3 12-1.3-3 4.3-4.5 6.3-4 11.4.3 5.4 5.6 10.8 11.2 11.3m-6.7-52.2c2.2 4 4.7 7.8 6 12.1-1.2.8-2.3 1.7-3.4 2.7-3.1-2.1-6.6-9.2-9.4-14.1-.5-.9-.8-2.4-1.3-3.3-2.3-4-5.2-6.5-.7-10.7 3.3 2.4 6.2 8.8 8.8 13.3m-2 16c1 2 3.2 4 2.7 6.7-3.8 3.2-5.5.1-8-4-1.4-2.3-2.2-4.7-3.3-6.7-3-5.4-6.6-9.7-6.7-13.4.9-.7 2-1.1 2.7-2 1.1-.2 1.1.7 2 .7 3.8 6 7 11.9 10.6 18.7" fill="#fff"/><path d="M420.2 467.9c-1.1.4-2 1.4-3.3 1.3-2.1-.1-2.9-1.8-4.7-4.7-.6-1-.7-2.2-1.3-3.3-2.2-4-7.8-12.7-8.7-15.4-.7 0-.5-.8-.7-1.3 1.5-1.3 5-.6 6.7 0 3.5 8.2 9.2 14.4 12 23.4m-5.4 34.8c0 1.8-1.6 3.5-2.7 5.4-3.6 6.3-8.7 14.6-12.7 20.7H366c.7-3.8 3.3-6.7 5.4-10 .3-.5.3-1.5.7-2 .2-.3 1.2-.4 1.3-.7 1.3-2.1 2.1-4.5 3.3-6.7 1.2-2.1 2.7-4 4-6-10.8-19.8-22.4-38.7-32.8-58.9H382c2.5 4.5 5 9.4 8 14.7 1.1 1.8 2.2 3.5 3.4 5.4.3.5.3 1.3.7 2 .6 1.1 2.1 2.3 2.7 3.3.7 1.3.6 2.7 1.3 4 .1.3 1.2.4 1.3.7.6 1.3 1 3 2 4.7 2.8 4.5 6 10.3 9.4 16.1 1.6 2.8 4 5.9 4 7.3" fill="#fff"/></svg>